<?xml version="1.0" standalone="no"?>
<!DOCTYPE svg PUBLIC "-//W3C//DTD SVG 20010904//EN"
 "http://www.w3.org/TR/2001/REC-SVG-20010904/DTD/svg10.dtd">
<svg version="1.0" xmlns="http://www.w3.org/2000/svg"
 width="1501.000000pt" height="1501.000000pt" viewBox="0 0 1501.000000 1501.000000"
 preserveAspectRatio="xMidYMid meet">
<metadata>
Created by potrace 1.11, written by Peter Selinger 2001-2013
</metadata>
<g transform="translate(0.000000,1501.000000) scale(0.100000,-0.100000)"
fill="#000000" stroke="none">
<path d="M5148 14016 c-1 -2 -52 -6 -113 -10 -139 -7 -184 -13 -320 -42 -135
-29 -131 -28 -229 -60 -415 -137 -743 -367 -1026 -720 -81 -100 -228 -365
-256 -459 -1 -5 -12 -35 -24 -65 -43 -113 -71 -242 -98 -445 -13 -98 -6 -395
12 -485 1 -8 6 -37 10 -65 41 -269 189 -663 346 -920 22 -37 40 -69 40 -71 0
-15 225 -334 301 -429 223 -275 557 -606 888 -881 2 -1 -50 21 -115 50 -301
134 -597 236 -900 310 -142 35 -172 41 -234 51 -19 3 -60 10 -90 15 -179 30
-331 43 -530 43 -132 1 -308 -7 -370 -17 -14 -2 -47 -7 -73 -11 -27 -4 -59 -8
-70 -11 -12 -2 -35 -7 -52 -10 -135 -23 -343 -87 -485 -148 -641 -277 -1106
-853 -1240 -1536 -26 -135 -29 -154 -36 -255 -24 -316 19 -627 124 -900 51
-131 101 -235 144 -297 10 -14 18 -29 18 -33 0 -10 74 -116 128 -183 239 -299
561 -519 947 -649 102 -34 222 -67 285 -78 19 -3 51 -10 70 -15 19 -5 55 -11
80 -14 25 -3 54 -8 65 -10 114 -22 492 -34 675 -21 128 8 264 22 310 30 14 3
48 7 75 11 41 5 156 25 335 60 271 53 744 201 1130 354 30 12 53 19 50 17 -3
-3 -57 -40 -120 -83 -113 -75 -394 -281 -447 -328 -16 -13 -62 -52 -103 -86
-173 -143 -431 -396 -575 -565 -377 -443 -632 -940 -710 -1390 -3 -16 -8 -37
-10 -45 -4 -16 -11 -69 -23 -186 -13 -118 -6 -354 14 -493 84 -588 434 -1134
942 -1468 112 -74 343 -190 452 -228 215 -74 391 -106 620 -110 229 -5 366 10
545 61 635 180 1144 649 1507 1388 199 407 373 961 454 1451 3 17 7 41 10 55
3 22 10 63 29 180 2 14 6 45 9 70 17 135 25 166 27 94 0 -21 2 -52 4 -69 2
-16 6 -64 10 -105 4 -41 8 -82 10 -90 1 -8 6 -44 10 -80 4 -36 8 -72 10 -80 1
-8 6 -40 10 -70 4 -30 8 -62 10 -70 2 -8 6 -35 10 -60 3 -25 19 -109 35 -187
120 -593 316 -1089 588 -1488 284 -416 650 -721 1068 -890 95 -39 267 -92 324
-101 19 -3 38 -8 41 -10 4 -2 28 -6 55 -9 26 -4 50 -8 53 -10 14 -8 169 -18
291 -19 194 -1 296 9 484 48 89 19 296 83 311 97 5 5 15 9 22 9 25 0 224 99
327 162 146 89 256 176 381 302 150 151 220 240 308 389 73 122 168 337 183
411 2 10 8 34 14 52 6 18 13 45 16 60 3 16 11 58 19 94 22 107 30 196 30 355
0 170 -7 263 -30 385 -30 163 -102 407 -153 520 -106 239 -182 380 -305 565
-67 102 -218 309 -236 325 -3 3 -28 32 -55 65 -171 207 -467 501 -711 705 -60
51 -112 94 -115 97 -6 6 44 -13 67 -26 10 -5 35 -16 56 -25 20 -9 52 -22 70
-30 192 -86 570 -213 775 -261 9 -3 35 -9 57 -14 78 -19 258 -54 330 -65 22
-3 56 -8 75 -11 116 -17 313 -29 465 -28 376 1 696 64 1015 200 439 188 806
523 1025 938 27 50 52 97 57 105 17 31 87 219 111 300 34 116 49 184 72 324
23 148 23 437 0 576 -2 14 -6 42 -9 62 -18 122 -79 339 -123 437 -231 524
-596 873 -1128 1079 -49 19 -94 35 -100 37 -5 1 -17 5 -25 8 -74 32 -414 100
-555 112 -38 4 -90 8 -115 11 -53 6 -429 5 -480 0 -19 -2 -72 -7 -118 -11 -46
-4 -93 -8 -105 -10 -12 -2 -42 -6 -67 -9 -106 -12 -263 -41 -500 -91 -8 -2
-53 -13 -100 -25 -47 -12 -92 -23 -100 -25 -130 -29 -553 -170 -778 -260 -75
-30 -132 -51 -126 -46 5 4 52 37 104 71 162 108 474 343 565 427 11 10 47 40
80 68 118 97 442 433 556 575 230 286 382 540 504 839 38 94 99 274 109 327 3
10 10 42 16 69 61 264 70 577 25 845 -24 138 -32 171 -72 295 -227 706 -855
1278 -1564 1425 -178 37 -242 43 -409 43 -313 0 -572 -59 -850 -195 -109 -54
-287 -164 -359 -223 -142 -117 -293 -263 -376 -365 -20 -25 -44 -54 -53 -65
-155 -186 -352 -528 -476 -829 -63 -149 -135 -346 -142 -385 -3 -14 -7 -28
-10 -32 -2 -4 -18 -54 -34 -111 -17 -57 -37 -125 -45 -153 -16 -53 -59 -236
-75 -320 -6 -27 -12 -61 -15 -75 -10 -46 -34 -174 -39 -210 -3 -19 -8 -46 -10
-60 -9 -51 -17 -106 -22 -149 -4 -44 -10 -59 -18 -50 -2 2 -6 36 -10 74 -4 39
-8 81 -10 95 -2 14 -7 52 -10 85 -4 33 -8 71 -11 85 -2 14 -9 60 -15 103 -20
137 -61 353 -86 457 -9 36 -17 70 -19 75 -21 93 -78 284 -127 425 -234 671
-603 1183 -1085 1507 -201 134 -500 261 -725 307 -133 28 -191 35 -308 41 -63
4 -120 8 -127 10 -6 2 -13 2 -15 1z m275 -1066 c226 -38 501 -177 761 -384 98
-78 231 -210 293 -291 343 -444 312 -937 -83 -1321 -130 -126 -294 -232 -484
-312 -137 -57 -167 -65 -245 -65 -130 -1 -252 55 -366 168 -132 130 -247 362
-275 552 -3 26 -8 57 -11 68 -6 30 -4 186 3 247 9 77 59 221 98 281 35 53 60
82 114 129 35 31 184 105 227 112 127 24 163 27 248 24 54 -2 96 1 94 6 -4 13
-138 64 -246 92 -118 32 -288 40 -384 18 -263 -61 -401 -270 -455 -691 -9 -76
-9 -373 1 -443 10 -74 17 -112 22 -120 2 -4 7 -21 10 -39 3 -17 17 -66 31
-107 127 -380 421 -645 787 -708 155 -27 370 -15 526 30 125 35 324 134 424
208 128 96 235 197 331 310 69 82 188 259 223 334 14 28 29 52 33 52 16 0 189
-514 235 -700 2 -8 20 -80 40 -160 20 -80 38 -152 40 -160 2 -8 21 -103 43
-210 34 -163 86 -447 96 -525 8 -56 19 -132 21 -146 2 -9 6 -40 10 -70 4 -30
9 -65 11 -79 1 -14 6 -52 10 -85 7 -69 21 -102 35 -88 9 9 30 110 53 253 3 19
8 46 11 60 2 14 7 36 10 50 2 14 7 41 10 60 3 19 14 78 25 130 11 52 21 106
24 120 18 102 78 357 131 560 16 61 70 246 86 295 11 33 22 67 24 75 2 8 12
35 23 60 l21 45 1 -45 c1 -25 3 -54 5 -65 2 -11 5 -47 8 -80 3 -33 8 -67 11
-75 3 -8 7 -33 10 -55 15 -121 62 -282 114 -395 121 -260 343 -441 650 -530
115 -34 273 -45 383 -27 80 13 246 79 292 117 7 5 37 30 67 54 116 91 242 257
321 422 51 107 51 125 -1 83 -132 -107 -318 -200 -445 -223 -105 -20 -232 1
-324 52 -85 46 -245 145 -261 162 -3 3 -27 23 -55 44 -107 84 -238 231 -306
341 -75 124 -130 280 -150 431 -10 81 -7 291 6 356 3 16 7 38 9 50 22 124 79
296 117 353 14 22 43 67 65 100 221 343 518 653 815 853 148 99 355 196 468
218 12 3 51 11 85 19 184 42 391 39 591 -8 43 -11 132 -50 199 -89 83 -48 270
-229 334 -324 199 -296 153 -533 -144 -735 -104 -70 -350 -182 -471 -215 -34
-9 -338 -85 -363 -90 -25 -6 -25 -6 15 -40 52 -45 201 -117 290 -140 53 -14
107 -18 225 -18 176 0 194 2 370 48 30 8 210 75 230 86 12 6 24 10 26 7 5 -5
-62 -235 -76 -259 -6 -10 -10 -22 -10 -27 0 -17 -89 -220 -145 -331 -94 -187
-217 -389 -344 -565 -78 -107 -273 -355 -319 -405 -38 -42 -43 -48 -112 -125
-240 -272 -673 -675 -1048 -972 -229 -182 -243 -193 -372 -288 -67 -49 -118
-91 -112 -93 6 -2 100 30 209 71 241 91 414 150 638 217 152 46 512 139 590
153 17 3 41 8 55 11 51 11 76 16 100 21 42 8 193 34 230 39 19 2 71 10 115 16
122 17 135 18 206 25 142 13 170 15 339 21 l175 7 -72 -74 c-237 -244 -395
-534 -448 -824 -17 -87 -22 -259 -10 -345 34 -264 167 -522 380 -735 157 -158
308 -254 495 -315 129 -42 283 -56 410 -37 210 31 403 147 550 332 226 285
216 598 -31 910 -64 81 -165 179 -176 172 -6 -4 -3 -38 8 -87 22 -105 20 -279
-5 -365 -81 -274 -323 -467 -554 -442 -82 9 -95 13 -164 44 -109 48 -223 146
-306 262 -118 163 -179 395 -138 523 19 58 84 175 125 222 105 121 203 208
326 287 350 226 750 275 1096 134 55 -22 235 -133 269 -166 8 -8 35 -30 60
-50 25 -20 75 -67 112 -105 321 -329 429 -738 297 -1118 -85 -245 -305 -482
-580 -626 -46 -24 -86 -45 -89 -46 -3 0 -27 -11 -55 -23 -52 -24 -267 -97
-307 -105 -27 -5 -114 -23 -144 -30 -12 -2 -39 -7 -60 -10 -39 -6 -72 -12
-129 -21 -152 -24 -773 -25 -847 -1 -7 3 -47 8 -88 12 -41 3 -82 7 -90 9 -8 1
-37 5 -65 9 -27 5 -88 15 -135 23 -47 8 -92 16 -100 17 -8 2 -28 6 -45 9 -16
4 -46 9 -65 12 -19 3 -51 10 -70 15 -45 12 -169 41 -195 46 -39 7 -401 112
-510 147 -290 94 -579 203 -907 343 -131 56 -167 72 -342 153 -50 23 -94 40
-99 38 -5 -1 13 -19 39 -40 27 -20 54 -40 59 -45 6 -4 37 -28 70 -52 33 -25
62 -47 65 -50 3 -3 28 -23 55 -45 384 -303 813 -710 1076 -1020 19 -22 36 -42
39 -45 3 -3 24 -27 45 -55 22 -27 43 -52 46 -55 14 -12 202 -264 261 -350 285
-415 509 -913 584 -1294 6 -32 22 -127 28 -166 24 -155 24 -448 2 -567 -3 -11
-7 -38 -10 -59 -7 -43 -16 -57 -17 -28 0 10 -2 28 -4 39 -2 11 -6 43 -11 70
-4 28 -8 55 -10 60 -1 6 -5 28 -9 50 -4 22 -18 83 -32 135 -13 52 -28 111 -33
131 -52 205 -248 603 -356 725 -11 12 -36 42 -58 68 -21 25 -71 73 -112 106
-76 61 -217 136 -235 124 -6 -3 18 -35 53 -73 86 -89 128 -149 191 -272 50
-97 120 -278 138 -359 4 -19 15 -66 24 -105 9 -38 18 -86 21 -105 2 -19 6 -44
9 -55 20 -102 28 -473 12 -605 -16 -136 -60 -323 -94 -400 -89 -203 -174 -313
-303 -392 -126 -77 -235 -88 -435 -42 -331 75 -653 291 -954 639 -71 82 -215
284 -297 415 -135 219 -280 517 -307 635 -20 83 -53 268 -62 345 -4 30 -9 62
-10 71 -8 40 -19 245 -19 344 0 261 45 453 133 564 16 20 53 50 83 67 50 27
59 29 168 29 121 -1 175 -7 274 -31 34 -8 69 -17 79 -19 56 -13 197 -60 295
-99 61 -24 114 -41 117 -36 7 11 -87 163 -141 229 -177 211 -371 329 -624 377
-64 12 -205 6 -271 -10 -76 -20 -170 -62 -236 -107 -51 -35 -172 -151 -214
-207 l-25 -33 -23 128 c-13 70 -25 137 -27 148 -2 11 -6 36 -9 55 -3 19 -7 46
-10 60 -3 14 -12 75 -20 135 -9 61 -17 121 -19 135 -3 14 -7 50 -11 81 -3 31
-7 65 -9 75 -2 11 -7 48 -11 84 -11 108 -25 102 -40 -15 -14 -111 -22 -164
-30 -205 -2 -14 -12 -70 -20 -125 -9 -55 -30 -167 -46 -250 -17 -82 -33 -161
-35 -175 -3 -14 -12 -52 -20 -85 -8 -33 -16 -69 -19 -80 -3 -11 -12 -49 -21
-85 -9 -36 -18 -75 -20 -87 -2 -12 -8 -32 -14 -45 l-9 -23 -7 25 c-13 45 -112
234 -160 305 -93 140 -213 229 -385 289 -42 14 -94 28 -115 31 -22 3 -45 8
-52 10 -26 9 -161 18 -257 17 -186 -1 -388 -28 -560 -73 -22 -6 -47 -12 -55
-14 -25 -5 -66 -24 -55 -25 6 0 53 -2 105 -4 52 -2 113 -7 135 -10 22 -3 60
-8 84 -11 83 -12 232 -54 312 -89 123 -53 186 -94 269 -176 112 -109 163 -206
208 -390 20 -79 26 -110 38 -185 2 -16 6 -41 9 -55 16 -88 27 -266 27 -405 -1
-143 -7 -216 -28 -350 -13 -86 -60 -239 -94 -310 -42 -87 -182 -308 -241 -380
-9 -11 -47 -58 -84 -104 -247 -309 -542 -553 -846 -700 -97 -47 -252 -104
-309 -114 -14 -3 -43 -10 -65 -15 -107 -29 -339 -35 -457 -13 -37 7 -69 12
-70 11 -2 0 -43 13 -91 30 -233 82 -425 242 -539 450 -51 93 -109 261 -124
360 -3 19 -7 46 -10 60 -13 69 -12 270 2 340 77 402 361 674 715 685 113 3
292 -32 337 -68 6 -5 12 -7 12 -3 0 10 105 -50 188 -107 100 -69 242 -206 327
-316 72 -93 100 -113 89 -64 -90 398 -260 689 -499 853 -99 68 -269 131 -390
145 -58 7 -230 7 -261 1 -12 -2 -45 -7 -75 -11 -30 -4 -58 -10 -64 -13 -5 -3
-3 5 6 18 8 14 33 54 55 90 21 36 75 117 118 180 145 211 255 351 475 604 65
74 492 499 586 583 264 234 508 433 792 644 98 73 180 134 182 136 2 1 2 6 -1
9 -4 3 -91 -26 -195 -64 -103 -39 -224 -82 -268 -97 -44 -15 -87 -30 -95 -33
-8 -3 -19 -6 -25 -8 -5 -1 -30 -9 -55 -17 -58 -20 -280 -88 -302 -92 -9 -2
-51 -13 -93 -25 -42 -12 -84 -23 -93 -25 -9 -3 -64 -16 -122 -30 -58 -14 -159
-36 -225 -50 -118 -25 -142 -30 -207 -40 -18 -3 -55 -10 -83 -15 -27 -5 -72
-12 -100 -15 -27 -3 -61 -8 -75 -10 -191 -28 -469 -47 -685 -48 -109 0 -332
10 -395 17 -14 2 -56 7 -95 11 -114 12 -148 18 -290 46 -296 59 -555 154 -784
286 -132 76 -233 150 -332 244 l-84 79 76 -44 c284 -164 525 -222 734 -175 79
18 188 76 254 136 151 136 253 354 254 538 0 272 -160 539 -490 815 -103 86
-138 101 -123 53 4 -16 19 -53 32 -83 42 -93 85 -227 104 -325 3 -16 7 -84 9
-150 6 -212 -41 -362 -145 -466 -46 -46 -69 -61 -121 -77 -277 -86 -609 174
-668 523 -20 118 -22 141 -21 235 1 123 4 157 26 273 7 38 48 145 77 202 59
113 200 222 417 319 220 100 330 121 630 120 236 0 391 -22 550 -80 85 -30
247 -111 270 -134 3 -3 23 -18 45 -35 41 -30 191 -176 236 -230 13 -16 48 -61
77 -100 28 -38 55 -74 59 -80 17 -22 175 -267 251 -390 161 -259 172 -275 191
-275 41 0 45 23 45 219 0 271 -34 462 -115 657 -64 153 -195 319 -333 421 -32
24 -56 43 -54 43 5 0 95 -16 138 -25 14 -3 37 -7 52 -10 15 -3 78 -17 140 -31
62 -14 122 -27 133 -29 84 -14 545 -152 755 -225 128 -45 462 -170 505 -190
11 -5 36 -15 55 -24 101 -43 184 -78 227 -98 26 -12 50 -22 53 -23 15 -5 66
-28 163 -74 60 -28 114 -52 120 -53 34 -8 7 21 -85 93 -57 44 -110 85 -118 92
-8 6 -35 28 -60 47 -41 31 -218 178 -230 190 -3 3 -27 25 -55 49 -314 277
-601 567 -830 841 -331 394 -593 820 -759 1234 -83 205 -165 515 -182 681 -3
39 -8 79 -10 90 -6 25 -6 333 0 360 2 11 7 47 11 79 18 156 94 384 174 521
162 278 435 467 721 501 30 3 56 7 58 9 7 6 203 -5 265 -15z m2287 -2214 c0
-3 -4 -8 -10 -11 -5 -3 -10 -1 -10 4 0 6 5 11 10 11 6 0 10 -2 10 -4z"/>
<path d="M7520 8133 c-186 -34 -322 -137 -409 -309 -85 -169 -72 -386 32 -546
112 -171 296 -266 496 -256 106 6 180 27 260 76 179 109 274 275 274 482 1
116 -25 209 -82 297 -98 152 -241 242 -411 259 -25 3 -54 6 -65 7 -11 2 -54
-3 -95 -10z"/>
</g>
</svg>
