<svg xmlns="http://www.w3.org/2000/svg" viewBox="0 0 360 360"><defs><style>.cls-1{fill:#00984e;}</style></defs><title>Conserv1 Color</title><g id="gaiser-color"><path class="cls-1" d="M165.47,185.52c1.63-20.31,6.46-129.77-76.18-153.84C15.42,10.17,24.39,76.81,61.61,92.12S109.29,76.75,87.23,69A44.39,44.39,0,0,0,71.6,66.81c-1.22,0-.63.51,0,.76,13.16,5,27.49,22.78,1.44,15.7C32.38,72.2,47.88,1.05,120.73,76.63c26.71,27.71,41,94.57,43.89,109.25C165,187.74,165.3,187.62,165.47,185.52Z"/><path class="cls-1" d="M154.8,193.84C70.88,113.55,17.25,141.63,44,105.78c16.49-18.85,40.85,6.49,59.13-7.53,8.59-6.58-2.52-25.91-6.28-31.91-.71-1.13-.56-1.51.45-1,7,3.78,34,20.16,14.77,40.71-19.82,21.2-45.76-7.34-56.68,3.07-26.79,25.52,68,5,99.86,83.61C155.59,193.57,155.27,194.29,154.8,193.84Z"/><path class="cls-1" d="M172.76,197.73c16.33-4.73,126.37-33.25,166.73,44.76,35.36,68.33-48.55,81.25-71.57,48.22-7.13-10.23-8.26-25.06-5.65-32.2,1-2.82,1.1-2.57,2.12-.1,2.6,6.31,5.24,21.54,15.47,30.29,36.08,30.83,81.53-12.63,9.47-68.39-31.48-24.35-105.08-22.5-117-22C171.29,198.32,171.43,198.12,172.76,197.73Z"/><path class="cls-1" d="M321.23,311.17c-78.65,49.55-108.27-72.66-154-105.09-.42-.28-.14-.55.45-.41C225.9,216,244.43,336.55,320.49,310.39,321.75,310,322.25,310.51,321.23,311.17Z"/><path class="cls-1" d="M177.45,174.85c31.85-47.48,33.6-75.45,45.24-91.61C270.26,17.18,334.51,118.45,257,144.7c-.18.06-.18,0,.43-.6,4.3-4,16.38-13.86,15.4-39.1-1.05-27.1-35.86-37.53-47.67-.45-10.25,32.21-39.88,63.63-48,71.64C175.94,177.47,176.72,175.94,177.45,174.85Z"/><path class="cls-1" d="M179.58,185.23c16.61-12.73,53-18.76,73.95-36,1.14-.94.73-1.27-.57-.53-22.6,12.89-48.61,8.49-73.48,35.87C178.65,185.48,178.66,185.93,179.58,185.23Z"/><path class="cls-1" d="M149.4,200.59c-36.67,15.52-128.57,18.78-88.54,64.86,35.29,40.64,99.58,15,98.3-44.93,0-.82-.6-.79-.9.09-9.5,27.74-41.95,77.47-80.88,32.2-25.58-29.73,54.74-31.3,73.2-51.81C151,200.52,150.22,200.24,149.4,200.59Z"/><path class="cls-1" d="M29.55,56.59C22,66.07,13.33,88.83,34.65,110c.37.37,1.39,1.25.08,1.62C16.94,116.58-5.9,82.76,29,56.37,29.72,55.8,30.14,55.85,29.55,56.59Z"/></g></svg>