<svg xmlns="http://www.w3.org/2000/svg" viewBox="0 0 360 360"><defs><style>.cls-1{fill:#00a2e3;}</style></defs><title>Duncan1 Color</title><g id="duncan-color"><path class="cls-1" d="M186.56,146c-33.59,0-107.1,2.68-107.1,27.46,0,12.24,56.56,25.83,60.31,32,3.42,5.64,13.52,43.47,20.07,99.44.31,2.64,6.37,8.27,6,4.1-4.44-59.29-13.3-103.88-16.9-108-6.75-7.84-49-25.24-49-26.46,0-7.83,58.25-11.06,86.35-11.22h.38c28.1.16,86.35,3.39,86.35,11.22,0,1.22-42.22,18.62-49,26.46-3.6,4.17-12.8,48.76-17.25,108-.31,4.17,6.1-1.46,6.41-4.1,6.55-56,16.65-93.8,20.06-99.44,3.76-6.2,60.32-19.79,60.32-32C293.66,148.67,220.15,146,186.56,146Z"/><path class="cls-1" d="M186.57,117h0C.13,117-8.18,207.66,125.22,207.66l0-1.79c-85-11-108.77-71.91,61.28-71.91h0c170.05,0,145.85,61.86,61.28,71.91l.05,1.79C381.3,207.66,373,117,186.57,117Z"/><path class="cls-1" d="M186.56,18.52c-5.73,0-15,10.12-9.29,9.72,4.41-.31,6.6,6.74,8.12,12.26a4.64,4.64,0,0,1,2.34,0c1.51-5.52,3.71-12.57,8.12-12.26C201.52,28.64,192.29,18.52,186.56,18.52Z"/><path class="cls-1" d="M207.91,59.25c5.85-15.16,35.24,2.55,11.85,25-.42.4-.85.2-.65-.29,8.84-21-2.15-29.51-10.68-23.86C208.09,60.3,207.72,59.74,207.91,59.25Z"/><path class="cls-1" d="M165.21,59.31c-5.85-15.17-35.24,2.54-11.85,25,.41.4.85.21.65-.28-8.84-21,2.15-29.52,10.68-23.87C165,60.36,165.4,59.8,165.21,59.31Z"/><path class="cls-1" d="M206,71.21c1.24-8.68-.84-28.13-19.27-28.13s-20.51,19.45-19.27,28.13-14.78,13.39-14.78,32.66a43.71,43.71,0,0,0,1,10c1.64-.12,3.29-.21,4.94-.32,1.64-47,53-46.29,55.37.11,1.92.13,3.84.25,5.76.41a42.23,42.23,0,0,0,1.05-10.19C220.78,84.6,204.76,79.89,206,71.21Zm-30.95,0c0-26.07,22.53-26.07,22.53,0C190.12,64.4,182.72,64.48,175.05,71.18Z"/><path class="cls-1" d="M279.78,270.55c-44.91,60.88-145.76,60.09-186.44,0-.75-1.11-2-.51-1.54.34,43.29,88.37,146.23,88.36,189.51,0C281.73,270,280.57,269.47,279.78,270.55Z"/></g></svg>