<svg xmlns="http://www.w3.org/2000/svg" viewBox="0 0 272.7 308.3"><defs><style>.cls-1{fill:#f5c023;}</style></defs><title>Asset 6</title><g id="Layer_2" data-name="Layer 2"><g id="ferris_color" data-name="ferris color"><path class="cls-1" d="M170.91,142.62C232.46-8.51,12.91-21.38,23,102.09c4.9,59.75,59.75,79.12,103.83,72.26,94.69-14.74,178.68,92.24,133.05,130.27-12,10-42,1.82-27.59-51.71,10.59-39.29-66.75-72.44-113.49-62.64C96.52,195-15.92,176.65,1.91,75.62c15-85,109-83.6,147-66C202.91,34.62,213.08,111,170.91,142.62Z"/><path class="cls-1" d="M123.5,183.77s24.52,7.66,8,20-16.5,18.71-8.67,19.63,22.49-2.12,27.29-15.85-8.48-22.45-15.35-24.85S123.5,183.77,123.5,183.77Z"/><path class="cls-1" d="M158,189.52s25.88,6,26.14,18-25.67,31.7-14,45.22,37.3,7.58,38.59-15.8-15.38-46.39-34.59-48.37S158,189.52,158,189.52Z"/><path class="cls-1" d="M160.21,125.51c1.59-25.42,1.33-61.13-24.3-80.89C108.41,23.43,37,32.11,45.27,100.05c5.62,46.13,52.64,61.57,69.64,41.57,17.15-20.18,3.64-35.93-5-43-11-9,10,9-3,28C95,144,64.25,124.75,65.31,89.32c.79-26.6,32.56-44.13,56.6-33.7,25.51,11.07,35.21,56.34,35.84,73.51C158,137,159.59,135.46,160.21,125.51Z"/><path class="cls-1" d="M168.85,157.14c36.86-14.94,62.27-58.08,37.86-105.44-.87-1.69.38-3.21,1.85-2.2C254.25,80.92,225,161.74,170.75,159.2,168.83,159.11,167.55,157.67,168.85,157.14Z"/></g></g></svg>