<svg xmlns="http://www.w3.org/2000/svg" viewBox="0 0 360 360"><defs><style>.cls-1{fill:#e991a7;}</style></defs><title>Japanese 1 Color</title><g id="Japanese2"><path class="cls-1" d="M182.12,177.67c17.27-19.9,87.16-105.52,45-142.36-42.39-37-63.31-1.92-69.38,11.65-1.31,2.92-.89,4,.95,2.91,9.28-5.77,39-20.61,58.58,11,14,22.61-23.59,93.72-35.42,114.93C179.7,179.65,179.78,180.36,182.12,177.67Z"/><path class="cls-1" d="M165.55,22.88c-66.07,16.59-41.09,96.46,13.8,150.44,1.25,1.23,1.64-.41.58-2.43-28.41-53.77-52.76-107.61-12.69-146.81C168,23.38,166.81,22.57,165.55,22.88Z"/><path class="cls-1" d="M190.41,189.93c57,16.4,149.54,53.25,95.45,120.65-.79,1-2.07-.22-1.94-1.77,5.33-62.26-47.68-89.63-95-117.88C187.38,190,188.35,189.33,190.41,189.93Z"/><path class="cls-1" d="M186,196.72c-2.67,19.6-8.47,109.16,35,129.17,49.25,22.68,74.79-22.42,47.56-54-30.94-35.92-54.5,9.8-44.37,26,10.92,17.46,25,10.39,31,6.21,1.77-1.25.47-2.26-.61-2.33-34.06-2.1-16.28-41.3,4-24,20.94,17.84,3.67,49.12-30.74,34.6-27.14-11.46-38.65-89.64-40.67-112.7C186.79,195.23,186.39,194.11,186,196.72Z"/><path class="cls-1" d="M192.5,176.56c52-91.52,102-115,135.53-60.19.72,1.3.11,2.09-1.86.63C286,90.49,240.42,126.57,193.1,178.87,192.13,180.1,191.73,178.52,192.5,176.56Z"/><path class="cls-1" d="M336.91,137c10.94,54.82-59.77,75.81-145,47.16-1.8-.6-1.41-1.34.6-1.11,63.26,7.26,127.33-10.52,141-46C334.32,135.07,336.51,135,336.91,137Z"/><path class="cls-1" d="M181.15,186.57C68.23,206.51,16.25,206.72,24.58,132.44c.17-1.74,1.31-.57,1.81,1.69,8.5,52.44,80.58,59.69,156,50.68C184.94,184.63,184.13,185.82,181.15,186.57Z"/><path class="cls-1" d="M176.63,177.49C127.24,118.83,74.16,50.08,35.46,109.29c-15,22.93,8.17,52.37,26.55,54.86C82.78,167,101,152,97.77,136.09c-4.18-20.28-22.93-10.39-28.93-6.63-1.17.74-1,1.21.24,1.25,5.62.16,20.25,1.41,14.44,10.36-13.75,21.17-46.61-.71-35.63-19.19,19.7-33.15,71.74,9.32,127,55.64C176.91,179.21,178.07,179.2,176.63,177.49Z"/><path class="cls-1" d="M99.44,324.55c77.66,37.94,81.66-100.06,81.25-128-.05-3.21-.84-1.22-1.22.69-12.32,60.66-47,123.35-79.52,125.92C98.88,323.19,98.54,324.11,99.44,324.55Z"/><path class="cls-1" d="M175.44,191.73c-16.27,8.18-94.8,46.68-96.75,73.3-2.72,37.28,30.3,43.19,67.21,4.7,1.64-1.71,2.38-1.12,1.24.91-7.93,14.19-35.87,69-74.37,33.79-50.32-46-14.84-91.05,102.12-113.38C176.24,190.8,177.66,190.61,175.44,191.73Z"/><path class="cls-1" d="M317.65,151.53c29-23.7-18.12-52.53-55.3-25.4-.72.52-.38,1.6.46,1.38,39.25-10.16,60.44,0,52.67,23.13C315.15,151.63,316.72,152.3,317.65,151.53Z"/></g></svg>