<svg xmlns="http://www.w3.org/2000/svg" viewBox="0 0 360 360"><defs><style>.cls-1{fill:#bb89c9;}</style></defs><title>Rose1 copy 2</title><g id="lilac"><path class="cls-1" d="M179.59,171.63c61.7-42.88,75.66-130.47,5-158.14-17.49-6.85-25.53,13.63-25.72,22.73-.65,31.7,18.33,47.27,30.07,33,13.6-16.55-6.46-32.9-6.46-32.9s5.07,17.29,1.25,20.61c-4.52,3.93-21-27-11.41-32.9s32,16.91,39.13,51.38C219.75,115.32,179.59,171.63,179.59,171.63Z"/><path class="cls-1" d="M155.49,37.93C117.78,72.62,115.92,132.82,176.26,170,139.5,135.36,141.08,78,155.49,37.93Z"/><path class="cls-1" d="M193.27,179S230.89,102.73,308,149.49c68.54,41.54,47,39.35,12.34,57.81-20.65,11-45.79,18.83-29.59-5.5s-8.52-17.64-8.52-17.64S303,168.54,307,173.81s-9.28,29.35-1.33,29.52,33.64-24.64,6-39.47C243.7,127.38,193.27,179,193.27,179Z"/><path class="cls-1" d="M195.79,189.88C220,209,259.47,227,298.93,221.74,279.33,246.16,210.38,230.4,195.79,189.88Z"/><path class="cls-1" d="M172.31,199.83s-54.82,27-47.3,63.28,35.3,73.65,47.9,76.28,25.36-14.38,33.37-28.8,21.15-42.76-1.48-48.76c-11.55-3.07-14.34,17.53-14.34,17.53s20.91-13.66,9.48,14.52c-18.61,45.9-37.75,22.93-50.67-7.34C125.69,231.3,172.31,199.83,172.31,199.83Z"/><path class="cls-1" d="M217.93,264.76c6.94-27.59-6.29-51.25-34.63-64.7C199.33,217.55,214,241.48,217.93,264.76Z"/><path class="cls-1" d="M162.37,180C128.48,111.76,50.44,123.41,11.8,169.53,58.08,140.21,113.2,138.28,162.37,180Z"/><path class="cls-1" d="M52.58,215.49c31.21,16.59,67.88,33.8,110.19-29.68C131.22,217.65,96.56,220,52.58,215.49Z"/><path class="cls-1" d="M47,213.85s-75.19-37-10.27-48.06c22.68-3.85,29,2,28.43,12.52-.83,14-19.22,15.37-19.22,15.37s13.15-14.82,2.12-16.28C-1.4,170.85,47,213.85,47,213.85Z"/><path class="cls-1" d="M74.86,183.51c27.54-23.49,52.82-22.57,76.71,0C127.93,207.84,101.93,206,74.86,183.51Z"/><path class="cls-1" d="M278.75,183.51c-27.53-23.49-52.82-22.57-76.7,0C225.69,207.84,251.69,206,278.75,183.51Z"/><path class="cls-1" d="M176.67,284.59c-23.49-27.53-22.57-52.82,0-76.7C201,231.52,199.15,257.52,176.67,284.59Z"/><path class="cls-1" d="M177.67,81.7c-23.49,27.53-22.57,52.82,0,76.7C202,134.77,200.15,108.77,177.67,81.7Z"/></g></svg>