<svg xmlns="http://www.w3.org/2000/svg" viewBox="0 0 360 360"><defs><style>.cls-1{fill:#8a3e75;}</style></defs><title>Main1 copy</title><g id="manito-color"><circle class="cls-1" cx="182.54" cy="178.24" r="13.44" transform="matrix(0.55, -0.83, 0.83, 0.55, -66.84, 232.12)"/><path class="cls-1" d="M246.12,145c131-84.49-41.58-200-61.62-40.83-10.81-148.93-187.35-62.06-72,31.55-129.41-60.5-142.79,138.81,6.32,77.11-131.8,84.49,42.56,201.16,61.77,38.88,9.69,151.84,188.22,64.11,72-29.62C382.22,282.24,395.06,82.89,246.12,145Zm-38.18,49c48.95,36.31,61.2,71.88,56.12,93.6-1.58-16.1-9.76-33.83-20.36-37.19-.47-.15-.7.16-.35.45,14.5,11.91,16.1,54.19-2.92,58-13.91.31-30.93-11.13-43.35-39.53-3.54-14.65-4.64-34.65,4.64-35.8,7.08-.88,16.92,3.17,19.84,4.47.55.24.71,0,.4-.56-1.41-2.73-6.18-10.59-15.43-13.34-10.4-3.08-17,2.89-20.65,8-1.42-7.17-2.62-14.91-3.55-23.25-.06-.55-.41-.47-.47,0A219.65,219.65,0,0,1,176,238.88a36.66,36.66,0,0,0-4.37-8.62c-8.27-12-28.58-7.25-34.41-5.59-1,.29-1.24.46-.62.44,4.35-.11,22,.31,26.06,14.13,2.87,9.79,3.86,26.4-1.58,35.45-27.31,44.48-68.82,35.48-67.4,1.66,2.31-19.45,23.57-27.21,39.79-4.47.27.38.72.58.53-.39-1.2-6.07-7.13-27.8-30.1-23.6l-1,.2c9.23-16.07,26-34.52,53-54,.57-.41.41-.68-.25-.4-58.36,23.07-95.49,13.5-110.42-3.2,17.45,11.67,27.48,4.72,31.23-5.68,4.11-11.4-7.31-21.64-12.47-25.55-1.42-1.08-1.85-.84-1.15.59,1.49,3.08,3.79,8.9,3.34,14.9-1.39,18.42-20.25,12-22.57-1.67-1.21-7.07-.53-14.26,3.7-19.7a41.61,41.61,0,0,1,15.85-7.7l-.32.14c29.41-3,34,9.82,47.63,31.14a.85.85,0,0,0,1.52-.49C113.32,159.83,107.9,150,99.7,145c15.75,2.55,34.55,8.42,56.45,18.81.65.31,1,.09.46-.33C68,97,101.3,33.5,138.71,52.3c33,18,26,44.42.37,53.53-10.27,3.66-19.62-9.73-19.14-22.06.62-15.88,14.34-15.79,18.54-15.38.76.07.82-.06.13-.37-4.33-2-20.53-8.09-24.62,8.4-5.95,24,7.46,42.94,28.33,39.82,11.42-1.71,22.22-11,27.88-22.89,5.41,13.86,9.76,31.32,12.3,52.9.16,1.3.83,1.06,1,0,2.63-15.8,5.48-29.08,9.6-40.47,1,11.7,2.69,24.37,17.61,29.68,17.65,6.27,25.88-9.89,27.91-14.77.35-.84.11-.95-.62-.35-3,2.42-11.13,8.17-18.2,4.45-7.72-4-26.05-15.36-16.52-40.78,8.65-14.47,18.82-23.44,28.6-27.84,10.79-4.17,21.74-3.56,28.34,2.45C284.64,80.88,247,88.46,241.94,89.36c-.35.06-.45.2-.26.38,1.66,1.58,10.66,8.92,28.17.74C265.19,110.17,247.62,136,209,163.85c-.56.41-.36.65.29.37,25-10,46.1-13.9,63.25-13.85-7.83,7.28-12.95,17.08-12.95,26.53,0,21.11,27.29,40.77,43.58,22.13,10.61-12.16-.28-23.34-3.78-26.41-.61-.54-.84-.44-.65.25.88,3.18,2.63,12.69-5.7,18.82-9.94,7.31-22.39-4.92-22.39-15.81,0-8.1,19.58-26.09,39-16.79,41.62,24.28,9.95,87.52-101.53,34.64C207.79,193.54,207.56,193.73,207.94,194Z"/></g></svg>