<svg xmlns="http://www.w3.org/2000/svg" viewBox="0 0 360 360"><defs><style>.cls-1{fill:#e2722c;}</style></defs><title>Mirror1 Color</title><g id="pond-color"><path class="cls-1" d="M182.2,93.34c11.91,3.44,19.28,16.26,15.47,21.1-2.78,3.52-26.1,6-28-5.26C166.87,96.37,169.59,89.54,182.2,93.34Z"/><path class="cls-1" d="M261.41,108.82c5.41-6.85,15.73-8.26,17.87-4.49,1.56,2.75-3,18.61-10.85,16.84C259.32,119.63,255.59,116,261.41,108.82Z"/><path class="cls-1" d="M39.61,226.33c1.31,85.36,92.36,76.34,105.88,54.3.65-1.07.36-2.66-1-2.38C97.46,288,54.13,267.93,41.62,225,40.9,222.48,39.57,223.45,39.61,226.33Z"/><path class="cls-1" d="M293.13,148.55C244,124.15,172.18,139.37,180.85,191c.18,1.08.83,1.91.93,1.24,7.26-46.27,67.69-53.89,111.13-42.88C294.07,149.61,294.21,149.09,293.13,148.55Z"/><path class="cls-1" d="M223.15,175.6c-14.43,2.53-16.36,22.69,16.52,21.22.88,0,1.41-.67.77-.92-13.07-5.21-21.36-11.23-16.59-19.49C224,176.08,223.58,175.52,223.15,175.6Z"/><path class="cls-1" d="M52.45,289.36C-30.52,137.41,164.54-82.9,292,95.91c-91.39-204.4-336.26-6.25-255.6,186C44.11,300.36,61.16,305.31,52.45,289.36Z"/><path class="cls-1" d="M303,158.34c6.44,59.71,47.95,92.23,34.7,99.88-32.76,18.9-111-30.36-162.24-56.49-34.65-17.69-39,89.67,2.85,134.44.13.14,4.48,3.34,6.41,4.69.58.41.55,0,.37-.25-35.63-56.62-19.92-117.67-9.63-127,11-10,107.06,80,168.62,54.83,20.06-8.19-12.58-54.43-40.38-111.77C303.31,155.9,302.83,157.05,303,158.34Z"/><path class="cls-1" d="M64.11,248.13C57.76,251,7.27,192.43,83.86,89.75c43.87-58.81,62,11.75,39.32,57.7-20.12,40.85-49.53,13.79-39.9-7,7.42-16,18.28-18.13,18.28-18.13-9.81,13.67-5.64,32,1.71,24.67,22.7-22.69,15.42-54.57-3.42-40C22.53,166.73,64.19,248.49,64.11,248.13Z"/></g></svg>