<svg xmlns="http://www.w3.org/2000/svg" viewBox="0 0 360 360"><defs><style>.cls-1{fill:#d71a33;}</style></defs><title>Rose1 Color</title><g id="TV"><path class="cls-1" d="M145,149.56l-.47.08a23.86,23.86,0,0,0,0,3.16c.81,7.15,3.57,13.59,7.32,19.64s8.3,11.42,14.4,15.27,12.72,5.33,19.66,2a23.58,23.58,0,0,0,9.39-8.2c9.15-13.47,14.25-28.34,14.37-44.69A37.74,37.74,0,0,0,200,110.74c-6.25-7.06-14.24-11.27-23.2-13.79a79.27,79.27,0,0,0-26.56-2.59A95.14,95.14,0,0,0,124.87,99c-13.9,4.78-24.65,13.78-32.79,25.8-14.82,21.9-19.64,46-14.64,71.95a72.21,72.21,0,0,0,22.48,40.37c10.31,9.47,22.52,15.39,36,18.85a132.25,132.25,0,0,0,39.89,3.66c2.67-.14,5.34-.33,8-.58a6.64,6.64,0,0,0,1.75-.65,5.3,5.3,0,0,0-1.92-1,157.86,157.86,0,0,1-34.78-15c-12-7.16-22.47-16-30.14-27.79-9-13.86-12.49-29-9.79-45.37,2.66-16.12,10.36-29.55,22.3-40.67a25.67,25.67,0,0,1,17.54-7.37c14.21-.21,25.44,5.89,33.6,17.28,5.75,8,5.41,14.67,0,22.18a11,11,0,0,1-8,4.64c-4,.45-7.65-.78-11.18-2.45a64.59,64.59,0,0,1-15.23-10.68C146.92,151.36,146,150.45,145,149.56Zm84.3-58.07.19-.51c-.28-.41-.57-.82-.85-1.24-2.73-4-5.25-8.14-6.18-13-.84-4.35,1.05-7.32,5.32-8.4a19.63,19.63,0,0,1,9.05-.1,47.24,47.24,0,0,1,26.82,15.93C274.52,97,280.28,112,282.17,128.64a95.48,95.48,0,0,1,0,20.56,106.71,106.71,0,0,1-11.16,37.52c-8.94,17.64-21.69,32.06-37.41,43.95a158.16,158.16,0,0,1-21.48,13.56c-.51.27-.83.88-1.24,1.33a5.79,5.79,0,0,0,1.69.41A118.92,118.92,0,0,0,234.35,243c25.79-6.11,46.42-19.86,61.16-42,14.38-21.57,20.23-45.49,18.46-71.29a93.14,93.14,0,0,0-10.08-36.92c-7.5-14.5-18.33-25.66-33.27-32.54-11.36-5.23-23.35-7.06-35.79-6.66a98.2,98.2,0,0,0-19.2,2.06c-5.15,1.19-10.12,2.83-14.33,6.19a8.24,8.24,0,0,0-3.27,7,14.64,14.64,0,0,0,3.06,8.29c5,6.89,11.81,11,19.93,13C223.71,90.87,226.52,91.08,229.28,91.49Zm-53,175.38-.13-.49a16.14,16.14,0,0,0-1.84,0,170.2,170.2,0,0,1-24.42,1.15,132.25,132.25,0,0,1-28.16-3.71c-18.37-4.57-34.55-13.14-48-26.57C61,224.63,52.49,209.52,47.07,192.57c-5.67-17.72-7.53-35.91-6.7-54.44a195.8,195.8,0,0,1,3-26.35A236.25,236.25,0,0,1,61.74,54.34c.33-.72.69-1.41.95-2.15a1.13,1.13,0,0,0-.11-1,1.35,1.35,0,0,0-1-.11,2.61,2.61,0,0,0-.8.52,115.66,115.66,0,0,0-35.45,42,130.69,130.69,0,0,0-13.7,59.23,162.46,162.46,0,0,0,1.54,21.48A135.72,135.72,0,0,0,32,227.71c8.76,14.38,19.89,26.54,34.05,35.77,22,14.33,46.12,18.53,71.83,14.88A146.49,146.49,0,0,0,175,267.58,10.05,10.05,0,0,0,176.25,266.87Zm173.9-34.45-.63-.34a13.81,13.81,0,0,0-2,1.85,106.06,106.06,0,0,1-15,17.12q-31.23,28.38-73.32,31.66a110.53,110.53,0,0,1-44.7-5.36,58.93,58.93,0,0,0-40.85.84c-18.53,7-33.09,19.06-44.39,35.16-4.35,6.19-7.79,12.85-9.11,20.41a8.16,8.16,0,0,0,.19,2.06,8.59,8.59,0,0,0,1.55-1.16,116.07,116.07,0,0,1,30.58-26.27c10.1-5.87,20.9-9.61,32.66-10.19a62.43,62.43,0,0,1,23.74,3.69,105.1,105.1,0,0,0,52.05,4.42,119.92,119.92,0,0,0,36.76-12.37c14.91-7.82,28-17.95,38.59-31.12,5.64-7,10.32-14.6,12.62-23.42C349.49,237.12,349.74,234.75,350.15,232.42ZM249.56,271.34c2.11-.14,6.22-.25,10.29-.72a116.37,116.37,0,0,0,44-14.18C317,249.08,328.2,239.65,336.49,227a59.75,59.75,0,0,0,10.28-32.06c.29-14.91-4.93-28-13.18-40.16-.22-.32-.79-.74-1-.65a1.81,1.81,0,0,0-.76,1,3.33,3.33,0,0,0-.05,1.1,109.87,109.87,0,0,1-2,21.71C326.45,194.62,319,209,306.38,220.59a99.25,99.25,0,0,1-29.44,18.31c-19.31,8-39.65,11.8-60.26,14.41-5.35.68-10.73,1.12-16.08,1.79a3.17,3.17,0,0,0-2.21,1.27c-.52,1,.77,1.27,1.4,1.67C214.33,267.41,230.43,271.25,249.56,271.34ZM232,114l-.19.32c.31.43.59.89.94,1.29,5.6,6.37,8.07,14,8.46,22.29a58.79,58.79,0,0,1-3.18,21.2,96.74,96.74,0,0,1-25.83,40.33,67.46,67.46,0,0,1-22.7,14.73c-13.29,5-25.79,3.85-37-5.3-2.31-1.88-4.25-4.22-6.42-6.27a5.08,5.08,0,0,0-1.81-.67,5.67,5.67,0,0,0-.12,1.52,59.48,59.48,0,0,0,7.17,19.48q10.31,16.89,30.13,17.1c10.36.1,19.9-3,29-7.61A105.5,105.5,0,0,0,246.6,202c8.89-11.65,15.3-24.41,16.5-39.32a44.08,44.08,0,0,0-4.65-24.1c-5.52-10.79-14.38-18.18-24.73-24A8.39,8.39,0,0,0,232,114ZM156,24.65a82.52,82.52,0,0,0-39.5,10C99,44,85.75,57.66,75.74,74.59A116.51,116.51,0,0,0,60.1,121.4a107.78,107.78,0,0,0,.48,28,7.32,7.32,0,0,0,.94,1.93L63,149.51a1,1,0,0,0,.1-.26,160.34,160.34,0,0,1,22-47.24C99,81.59,116.53,65.16,139,54.36A113.29,113.29,0,0,1,184.5,43.18a131.52,131.52,0,0,1,25.61,1.7,4.76,4.76,0,0,0,1.5-.27,8,8,0,0,0-.63-1.69,3.18,3.18,0,0,0-1.1-.81c-2.56-1.56-5.07-3.19-7.69-4.65C187.83,29.46,172.57,24.67,156,24.65Zm-60.44,281c2.37-.24,5.73-.43,9-1,8.89-1.47,16.83-5,23.38-11.32a12.65,12.65,0,0,0,2.1-2.36,3.09,3.09,0,0,0,.15-2.07c-.05-.23-.94-.46-1.4-.39a104.09,104.09,0,0,1-36.16-.65,88.23,88.23,0,0,1-45.12-23.66,108.52,108.52,0,0,1-15.18-18.6c-.32-.49-1-.72-1.58-1.07-.25.58-.73,1.16-.71,1.73.06,2,.23,4.05.47,6.06a55.33,55.33,0,0,0,16.6,33.81C60.27,299,76.29,305.11,95.54,305.68Z"/><path class="cls-1" d="M145,149.56c1,.89,1.94,1.8,2.92,2.68a64.59,64.59,0,0,0,15.23,10.68c3.53,1.67,7.17,2.9,11.18,2.45a11,11,0,0,0,8-4.64c5.44-7.51,5.78-14.18,0-22.18-8.16-11.39-19.39-17.49-33.6-17.28a25.67,25.67,0,0,0-17.54,7.37c-11.94,11.12-19.64,24.55-22.3,40.67-2.7,16.36.78,31.51,9.79,45.37,7.67,11.82,18.16,20.63,30.14,27.79a157.86,157.86,0,0,0,34.78,15,5.3,5.3,0,0,1,1.92,1,6.64,6.64,0,0,1-1.75.65c-2.65.25-5.32.44-8,.58A132.25,132.25,0,0,1,135.91,256c-13.47-3.46-25.68-9.38-36-18.85a72.21,72.21,0,0,1-22.48-40.37c-5-25.92-.18-50,14.64-71.95,8.14-12,18.89-21,32.79-25.8a95.14,95.14,0,0,1,25.32-4.68A79.27,79.27,0,0,1,176.75,97c9,2.52,16.95,6.73,23.2,13.79a37.74,37.74,0,0,1,9.65,26.11c-.12,16.35-5.22,31.22-14.37,44.69a23.58,23.58,0,0,1-9.39,8.2c-6.94,3.3-13.47,1.88-19.66-2s-10.65-9.2-14.4-15.27-6.51-12.49-7.32-19.64a23.86,23.86,0,0,1,0-3.16Z"/><path class="cls-1" d="M229.28,91.49c-2.76-.41-5.57-.62-8.26-1.29-8.12-2-15-6.13-19.93-13A14.64,14.64,0,0,1,198,68.89a8.24,8.24,0,0,1,3.27-7c4.21-3.36,9.18-5,14.33-6.19a98.2,98.2,0,0,1,19.2-2.06c12.44-.4,24.43,1.43,35.79,6.66,14.94,6.88,25.77,18,33.27,32.54A93.14,93.14,0,0,1,314,129.77c1.77,25.8-4.08,49.72-18.46,71.29-14.74,22.1-35.37,35.85-61.16,42A118.92,118.92,0,0,1,212.61,246a5.79,5.79,0,0,1-1.69-.41c.41-.45.73-1.06,1.24-1.33a158.16,158.16,0,0,0,21.48-13.56c15.72-11.89,28.47-26.31,37.41-43.95a106.71,106.71,0,0,0,11.16-37.52,95.48,95.48,0,0,0,0-20.56C280.28,112,274.52,97,263.63,84.17a47.24,47.24,0,0,0-26.82-15.93,19.63,19.63,0,0,0-9.05.1c-4.27,1.08-6.16,4-5.32,8.4.93,4.86,3.45,9,6.18,13,.28.42.57.83.85,1.24Z"/><path class="cls-1" d="M176.25,266.87a10.05,10.05,0,0,1-1.23.71,146.49,146.49,0,0,1-37.16,10.78C112.15,282,88,277.81,66,263.48c-14.16-9.23-25.29-21.39-34-35.77a135.72,135.72,0,0,1-18.82-53.42,162.46,162.46,0,0,1-1.54-21.48,130.69,130.69,0,0,1,13.7-59.23,115.66,115.66,0,0,1,35.45-42,2.61,2.61,0,0,1,.8-.52,1.35,1.35,0,0,1,1,.11,1.13,1.13,0,0,1,.11,1c-.26.74-.62,1.43-.95,2.15a236.25,236.25,0,0,0-18.42,57.44,195.8,195.8,0,0,0-3,26.35c-.83,18.53,1,36.72,6.7,54.44,5.42,17,14,32.06,26.62,44.69,13.46,13.43,29.64,22,48,26.57a132.25,132.25,0,0,0,28.16,3.71,170.2,170.2,0,0,0,24.42-1.15,16.14,16.14,0,0,1,1.84,0Z"/><path class="cls-1" d="M350.15,232.42c-.41,2.33-.66,4.7-1.25,7-2.3,8.82-7,16.41-12.62,23.42-10.6,13.17-23.68,23.3-38.59,31.12a119.92,119.92,0,0,1-36.76,12.37,105.1,105.1,0,0,1-52.05-4.42,62.43,62.43,0,0,0-23.74-3.69c-11.76.58-22.56,4.32-32.66,10.19a116.07,116.07,0,0,0-30.58,26.27,8.59,8.59,0,0,1-1.55,1.16,8.16,8.16,0,0,1-.19-2.06c1.32-7.56,4.76-14.22,9.11-20.41,11.3-16.1,25.86-28.2,44.39-35.16a58.93,58.93,0,0,1,40.85-.84,110.53,110.53,0,0,0,44.7,5.36q42-3.34,73.32-31.66a106.06,106.06,0,0,0,15-17.12,13.81,13.81,0,0,1,2-1.85Z"/><path class="cls-1" d="M249.56,271.34c-19.13-.09-35.23-3.93-49.77-13.3-.63-.4-1.92-.65-1.4-1.67a3.17,3.17,0,0,1,2.21-1.27c5.35-.67,10.73-1.11,16.08-1.79,20.61-2.61,40.95-6.36,60.26-14.41a99.25,99.25,0,0,0,29.44-18.31C319,209,326.45,194.62,329.76,178a109.87,109.87,0,0,0,2-21.71,3.33,3.33,0,0,1,.05-1.1,1.81,1.81,0,0,1,.76-1c.21-.09.78.33,1,.65,8.25,12.12,13.47,25.25,13.18,40.16A59.75,59.75,0,0,1,336.49,227c-8.29,12.68-19.54,22.11-32.63,29.47a116.37,116.37,0,0,1-44,14.18C255.78,271.09,251.67,271.2,249.56,271.34Z"/><path class="cls-1" d="M232,114a8.39,8.39,0,0,1,1.76.55c10.35,5.83,19.21,13.22,24.73,24a44.08,44.08,0,0,1,4.65,24.1c-1.2,14.91-7.61,27.67-16.5,39.32a105.5,105.5,0,0,1-36.25,30.43c-9.08,4.62-18.62,7.71-29,7.61q-19.81-.18-30.13-17.1a59.48,59.48,0,0,1-7.17-19.48,5.67,5.67,0,0,1,.12-1.52,5.08,5.08,0,0,1,1.81.67c2.17,2.05,4.11,4.39,6.42,6.27,11.25,9.15,23.75,10.28,37,5.3a67.46,67.46,0,0,0,22.7-14.73A96.74,96.74,0,0,0,238,159.07a58.79,58.79,0,0,0,3.18-21.2c-.39-8.34-2.86-15.92-8.46-22.29-.35-.4-.63-.86-.94-1.29Z"/><path class="cls-1" d="M156,24.65c16.59,0,31.85,4.81,46.21,12.81,2.62,1.46,5.13,3.09,7.69,4.65a3.18,3.18,0,0,1,1.1.81,8,8,0,0,1,.63,1.69,4.76,4.76,0,0,1-1.5.27,131.52,131.52,0,0,0-25.61-1.7A113.29,113.29,0,0,0,139,54.36C116.53,65.16,99,81.59,85.13,102a160.34,160.34,0,0,0-22,47.24,1,1,0,0,1-.1.26l-1.48,1.79a7.32,7.32,0,0,1-.94-1.93,107.78,107.78,0,0,1-.48-28A116.51,116.51,0,0,1,75.74,74.59c10-16.93,23.27-30.62,40.74-40A82.52,82.52,0,0,1,156,24.65Z"/><path class="cls-1" d="M95.54,305.68c-19.25-.57-35.27-6.66-48.41-19.49a55.33,55.33,0,0,1-16.6-33.81c-.24-2-.41-4-.47-6.06,0-.57.46-1.15.71-1.73.54.35,1.26.58,1.58,1.07a108.52,108.52,0,0,0,15.18,18.6,88.23,88.23,0,0,0,45.12,23.66,104.09,104.09,0,0,0,36.16.65c.46-.07,1.35.16,1.4.39a3.09,3.09,0,0,1-.15,2.07,12.65,12.65,0,0,1-2.1,2.36c-6.55,6.35-14.49,9.85-23.38,11.32C101.27,305.25,97.91,305.44,95.54,305.68Z"/></g></svg>