<svg xmlns="http://www.w3.org/2000/svg" viewBox="0 0 92.83 92.83"><defs><style>.cls-1{fill:#fff;}.cls-2{fill:#20221d;}</style></defs><title>Asset 7</title><g id="Layer_2" data-name="Layer 2"><g id="Manito2"><circle class="cls-1" cx="46.42" cy="46.42" r="46.42"/><path class="cls-2" d="M66.28,63.9c.73-2.87,0-5.92-.93-4.26-13,22.07-23.19-6.41-46.06-12.94,22.87-6.52,33-35,46.06-12.93,1,1.66,1.66-1.39.93-4.26C57-7.38,40.44,35.17,9.59,45c-.67.21-2,.56-2,1.72s1.38,1.52,2.05,1.73C40.44,58.24,57,100.79,66.28,63.9Z"/><path class="cls-2" d="M85.71,46.36C78.5,43.79,69.15,41,66.89,42.74a9.07,9.07,0,0,0-3,4,9.06,9.06,0,0,0,3,4c2.27,1.77,11.65-1.06,18.86-3.64A.36.36,0,0,0,85.71,46.36Z"/></g></g></svg>