<svg id="Layer_1" data-name="Layer 1" xmlns="http://www.w3.org/2000/svg" viewBox="0 0 295.56 162.43"><defs><style>.cls-1{isolation:isolate;}</style></defs><title>bench</title><g class="cls-1"><g class="cls-1"><path d="M1.48,128.28H9.63A10.21,10.21,0,0,1,16,130.05a5.48,5.48,0,0,1,2.34,4.57,5,5,0,0,1-2,4.27,9.76,9.76,0,0,1-5.85,1.5A30.57,30.57,0,0,1,7,140.16v6.26a5.12,5.12,0,0,0,.54,2.78,2.27,2.27,0,0,0,2,.76v.65h-8V150a2.21,2.21,0,0,0,2-.8A4.82,4.82,0,0,0,4,146.5v-14a5.06,5.06,0,0,0-.55-2.78,2.25,2.25,0,0,0-2-.78Zm8.27.86H7v10a8.8,8.8,0,0,0,2.76.38,5.78,5.78,0,0,0,4-1.29,4.52,4.52,0,0,0,1.45-3.55,5.64,5.64,0,0,0-1.44-4A5.14,5.14,0,0,0,9.75,129.14Z"/></g><g class="cls-1"><path d="M30.05,150.61V150c1.28,0,1.92-.44,1.92-1.33a2.67,2.67,0,0,0-.17-.86l-2.08-6.2H22.56L21,146.05a8.89,8.89,0,0,0-.57,2.46c0,.94.59,1.43,1.77,1.45v.65H16.46V150a3.33,3.33,0,0,0,1.92-.82,7.09,7.09,0,0,0,1.39-2.69L26,128h2.3l6.48,19.24a5,5,0,0,0,1.19,2.2,3.2,3.2,0,0,0,2,.49v.65ZM23,140.2h6.3l-3.17-9.47Z"/></g><g class="cls-1"><path d="M46.61,140.27h-1.8v6.15a4.9,4.9,0,0,0,.56,2.76,2.29,2.29,0,0,0,2,.78v.65h-8V150a2.26,2.26,0,0,0,2-.78,5.24,5.24,0,0,0,.52-2.76v-14a5.19,5.19,0,0,0-.51-2.73,2.29,2.29,0,0,0-2-.75v-.65h9.16a8.35,8.35,0,0,1,5.42,1.65,5.15,5.15,0,0,1,2,4.19c0,2.75-1.53,4.57-4.6,5.49a8.89,8.89,0,0,1,2,1.78,29.37,29.37,0,0,1,2.53,3.76A19.35,19.35,0,0,0,58.56,149a3.41,3.41,0,0,0,2,1v.65H56a43.07,43.07,0,0,1-3.41-5,18.77,18.77,0,0,0-3.34-4.4A4.22,4.22,0,0,0,46.61,140.27Zm.54-11.13H44.81v10.2h2.74a5.18,5.18,0,0,0,3.85-1.41,5.07,5.07,0,0,0,1.4-3.73,4.7,4.7,0,0,0-1.55-3.66A5.85,5.85,0,0,0,47.15,129.14Z"/></g><g class="cls-1"><path d="M61.12,150.61V150a2.23,2.23,0,0,0,2-.79,5.1,5.1,0,0,0,.54-2.75V132.49a5.26,5.26,0,0,0-.53-2.79,2.26,2.26,0,0,0-2-.77v-.65h8v.65a2.17,2.17,0,0,0-2,.8,5.16,5.16,0,0,0-.54,2.76v6.74l7.29-7.18a3.17,3.17,0,0,0,1.16-1.86q0-1-1.41-1.26v-.65H82.1v.65H81a5.14,5.14,0,0,0-2.31.67,9.48,9.48,0,0,0-2.39,1.78l-7,6.87,9.23,9.35a11.87,11.87,0,0,0,2.11,1.85,5,5,0,0,0,2.08.51v.65H77.46l-10.83-11v6.76a5.25,5.25,0,0,0,.52,2.75,2.18,2.18,0,0,0,2,.79v.65Z"/><path d="M104,150.61H93.74V150a2.27,2.27,0,0,0,2-.77,5.09,5.09,0,0,0,.55-2.77V132.49a5.27,5.27,0,0,0-.53-2.8,2.25,2.25,0,0,0-2-.76v-.65h8.42a9.66,9.66,0,0,1,5.7,1.49,4.66,4.66,0,0,1,2.08,3.95c0,2.4-1.5,4.08-4.5,5.06v.09a7.56,7.56,0,0,1,4.16,2.26,5.71,5.71,0,0,1,1.61,4,4.74,4.74,0,0,1-2,4A8.39,8.39,0,0,1,104,150.61Zm-4.81-21.47v9.46h2.31a5.57,5.57,0,0,0,3.85-1.27,4.3,4.3,0,0,0,1.43-3.42,4.47,4.47,0,0,0-1.4-3.52,5.7,5.7,0,0,0-4-1.25Zm2.12,10.31H99.22V146a6.24,6.24,0,0,0,.48,3,1.94,1.94,0,0,0,1.83.79h1.85a4.18,4.18,0,0,0,3.18-1.3,4.88,4.88,0,0,0,1.23-3.49,5,5,0,0,0-1.77-4A7,7,0,0,0,101.34,139.45Z"/></g><g class="cls-1"><path d="M127.72,136.73h.66v5.43h-.66a3.21,3.21,0,0,0-.88-1.79,4.47,4.47,0,0,0-2.24-.36h-5.54v8a1.55,1.55,0,0,0,.37,1.18,1.82,1.82,0,0,0,1.26.35h3.91a12.3,12.3,0,0,0,2.89-.23,2.91,2.91,0,0,0,1.35-.85,8.08,8.08,0,0,0,1.18-2h.67l-1,4.17H113.57V150a2.24,2.24,0,0,0,2-.77,5.24,5.24,0,0,0,.51-2.73v-14a5.18,5.18,0,0,0-.53-2.8,2.27,2.27,0,0,0-2-.76v-.65h16.09V132h-.42a3.73,3.73,0,0,0-1-2.12,4.82,4.82,0,0,0-2.77-.53h-6.43v9.56h6.24a2.47,2.47,0,0,0,1.74-.46A3.17,3.17,0,0,0,127.72,136.73Z"/></g><g class="cls-1"><path d="M150.68,128.93v-.65h6.74v.65a2.79,2.79,0,0,0-2.25.76,4.55,4.55,0,0,0-.62,2.76v18.16h-.69L138,131.19v15.69a3.41,3.41,0,0,0,.68,2.37A3,3,0,0,0,141,150v.65h-6.78V150a2.47,2.47,0,0,0,2.19-.84,5.66,5.66,0,0,0,.58-3V133.06a4.72,4.72,0,0,0-.78-3,3.61,3.61,0,0,0-2.54-1.09v-.65h5.73l14,17.38V132.6a5.09,5.09,0,0,0-.58-2.86A2.46,2.46,0,0,0,150.68,128.93Z"/></g><g class="cls-1"><path d="M178.56,128v6.66h-.67a8.46,8.46,0,0,0-2.56-4.57,7.08,7.08,0,0,0-4.69-1.47,7.38,7.38,0,0,0-6,2.75,11.25,11.25,0,0,0-2.22,7.31,12.87,12.87,0,0,0,2.35,8.06,7.38,7.38,0,0,0,6.16,3.05,8.21,8.21,0,0,0,7.78-4.91l.59.55a8.91,8.91,0,0,1-3.62,4.22,10.56,10.56,0,0,1-5.71,1.55,11.3,11.3,0,0,1-5.6-1.43,10,10,0,0,1-4-3.93A11.64,11.64,0,0,1,159,140a12.4,12.4,0,0,1,3.27-8.82,10.85,10.85,0,0,1,8.27-3.49,19.29,19.29,0,0,1,4.24.59,11.18,11.18,0,0,0,2,.34,1.24,1.24,0,0,0,1.2-.7Z"/></g><g class="cls-1"><path d="M198.06,146.42v-6.49H185.89v6.49a5,5,0,0,0,.56,2.76,2.35,2.35,0,0,0,2,.78v.65h-8.07V150a2.24,2.24,0,0,0,2-.79,5.21,5.21,0,0,0,.53-2.75V132.49a5.15,5.15,0,0,0-.54-2.81,2.31,2.31,0,0,0-2-.75v-.65h8.07v.65a2.31,2.31,0,0,0-2,.81,5,5,0,0,0-.56,2.75v6.35h12.17v-6.35a5.27,5.27,0,0,0-.53-2.81,2.24,2.24,0,0,0-2-.75v-.65h8v.65a2.27,2.27,0,0,0-2,.78,5.06,5.06,0,0,0-.55,2.78v13.93a5,5,0,0,0,.55,2.77,2.27,2.27,0,0,0,2,.77v.65h-8V150a2.19,2.19,0,0,0,2-.77A5.36,5.36,0,0,0,198.06,146.42Z"/></g><g class="cls-1"><path d="M235.77,128v6.66h-.67a8.46,8.46,0,0,0-2.56-4.57,7.08,7.08,0,0,0-4.69-1.47,7.38,7.38,0,0,0-6,2.75,11.25,11.25,0,0,0-2.22,7.31,12.87,12.87,0,0,0,2.35,8.06,7.38,7.38,0,0,0,6.16,3.05,8.21,8.21,0,0,0,7.78-4.91l.59.55a8.91,8.91,0,0,1-3.62,4.22,10.56,10.56,0,0,1-5.71,1.55,11.3,11.3,0,0,1-5.6-1.43,10,10,0,0,1-4-3.93,11.64,11.64,0,0,1-1.4-5.76,12.4,12.4,0,0,1,3.27-8.82,10.85,10.85,0,0,1,8.27-3.49,19.29,19.29,0,0,1,4.24.59,11.18,11.18,0,0,0,2,.34,1.24,1.24,0,0,0,1.2-.7Z"/></g><g class="cls-1"><path d="M249.88,150.61V150c1.28,0,1.92-.44,1.92-1.33a2.67,2.67,0,0,0-.17-.86l-2.08-6.2h-7.17l-1.52,4.48a8.89,8.89,0,0,0-.57,2.46c0,.94.59,1.43,1.77,1.45v.65h-5.77V150a3.33,3.33,0,0,0,1.92-.82,7.09,7.09,0,0,0,1.39-2.69L245.78,128h2.3l6.48,19.24a5,5,0,0,0,1.19,2.2,3.2,3.2,0,0,0,2,.49v.65ZM242.8,140.2h6.3l-3.17-9.47Z"/></g><g class="cls-1"><path d="M270.58,139.82h-5.91v6.6a5,5,0,0,0,.56,2.77,2.26,2.26,0,0,0,2,.77v.65h-8V150a2.25,2.25,0,0,0,2-.77,5.11,5.11,0,0,0,.54-2.77V132.49a5.26,5.26,0,0,0-.53-2.79,2.26,2.26,0,0,0-2-.77v-.65h15.33v4H274a4.55,4.55,0,0,0-.95-2.32,4.26,4.26,0,0,0-2.68-.56h-5.7v9.35h5.83a2.3,2.3,0,0,0,1.75-.6,3.54,3.54,0,0,0,.74-2h.61v6.28H273C272.92,140.66,272.11,139.82,270.58,139.82Z"/><path d="M291.16,136.73h.66v5.43h-.66a3.21,3.21,0,0,0-.88-1.79A4.5,4.5,0,0,0,288,140h-5.54v8a1.55,1.55,0,0,0,.38,1.18,1.81,1.81,0,0,0,1.26.35H288a12.4,12.4,0,0,0,2.9-.23,2.91,2.91,0,0,0,1.35-.85,8.08,8.08,0,0,0,1.18-2h.67l-1,4.17H277V150a2.25,2.25,0,0,0,2-.77,5.24,5.24,0,0,0,.51-2.73v-14a5.18,5.18,0,0,0-.53-2.8,2.28,2.28,0,0,0-2-.76v-.65H293.1V132h-.42a3.8,3.8,0,0,0-1-2.12,4.82,4.82,0,0,0-2.77-.53h-6.44v9.56h6.25a2.47,2.47,0,0,0,1.74-.46A3.17,3.17,0,0,0,291.16,136.73Z"/></g></g><polygon points="16.02 98.11 17.57 98.11 17.57 82.94 13.86 83.33 13.86 84.68 16.02 84.68 16.02 98.11"/><path d="M29.17,87.92a4.54,4.54,0,0,0,1.54,3.57,5.38,5.38,0,0,0,3.68,1.39l.44-.29-4.58,5.52h2L38.14,91a4.72,4.72,0,0,0,1.12-3.15,4.79,4.79,0,0,0-1.47-3.53,5,5,0,0,0-3.58-1.48,4.84,4.84,0,0,0-3.57,1.45,5.39,5.39,0,0,0-1.08,1.59A5.11,5.11,0,0,0,29.17,87.92Zm5,3.37a3.31,3.31,0,0,1-2.45-1,3.41,3.41,0,0,1-1-2.45,3.24,3.24,0,0,1,1-2.4,3.29,3.29,0,0,1,2.44-1,3.47,3.47,0,0,1,2.47,1,3.28,3.28,0,0,1,1,2.43,3.18,3.18,0,0,1-1.06,2.4,3.4,3.4,0,0,1-2.4,1Z"/><path d="M248.67,98.11h10.56V96.56h-6.84l5.23-5.18a4.76,4.76,0,0,0,1.45-3.5,4.71,4.71,0,0,0-1.5-3.53,5.11,5.11,0,0,0-7.23,0l0,0a4.79,4.79,0,0,0-1.39,3.69h1.57a3.2,3.2,0,0,1,.92-2.54,3.46,3.46,0,0,1,5-.1,3.38,3.38,0,0,1,.1,4.78l-.05.05Z"/><path d="M278.15,98a5.24,5.24,0,0,0,1.61-1.06,4.93,4.93,0,0,0,.13-7l-.13-.13a5.66,5.66,0,0,0-3.57-1.52l-.66.4,4.69-5.56h-8.07v1.55h4.94L272.53,90l1.17,1a3.39,3.39,0,0,1,2.51-1.06,3.53,3.53,0,0,1,3.51,3.48,3.2,3.2,0,0,1-1.06,2.43,3.58,3.58,0,0,1-1.1.75,4.32,4.32,0,0,1-1.55.26,3.22,3.22,0,0,1-1.8-.59,3.07,3.07,0,0,1-1.28-1.66l-1.5.51a4.6,4.6,0,0,0,1.85,2.4,4.68,4.68,0,0,0,1.39.66,4.63,4.63,0,0,0,1.65.25A4.46,4.46,0,0,0,278.15,98Z"/><polyline points="225.99 56.23 56.91 56.23 71.89 52.77 211.01 52.77 225.99 56.23"/><rect x="71.58" y="41.3" width="139.44" height="8.9"/><rect x="71.58" y="28.89" width="139.44" height="8.89"/><rect x="71.58" y="16.47" width="139.44" height="8.89"/><rect x="71.58" y="4.05" width="139.44" height="8.9"/><rect x="56.91" y="57.46" width="169.08" height="5.25"/><rect x="78.95" width="7.13" height="51.53"/><rect x="196.51" width="7.13" height="51.53"/><path d="M67.93,113.94l-10-1.83a66.91,66.91,0,0,0,0-51.89l10-1.83a71.65,71.65,0,0,1,0,55.55"/><path d="M79,61.21A87.76,87.76,0,0,1,75.14,91.5l7.55,1.83a93.67,93.67,0,0,0,4.1-32.12H79"/><path d="M214.51,113.94l10-1.83a66.91,66.91,0,0,1,0-51.89l-10-1.83a71.56,71.56,0,0,0,0,55.55"/><path d="M203.7,61.21a87.26,87.26,0,0,0,3.82,30.29L200,93.33a94.16,94.16,0,0,1-4.1-32.12h7.84"/></svg>