<svg xmlns="http://www.w3.org/2000/svg" viewBox="0 0 281.6 128.22"><defs><style>.cls-1{fill:#20221d;}</style></defs><title>Asset 6</title><g id="Layer_2" data-name="Layer 2"><g id="typography"><path class="cls-1" d="M113.79,24.32l1.73-8.41a5.91,5.91,0,0,0-2.36,1.3L113,17a7.4,7.4,0,0,1,5.41-2.21A6.42,6.42,0,0,1,123,16.4a5.34,5.34,0,0,1,1.76,4.06,5.55,5.55,0,0,1-.91,3.1,5.17,5.17,0,0,1-2.37,2,12.65,12.65,0,0,1-4.66.63H112l.07-.34a2.42,2.42,0,0,0,1.23-.44A1.87,1.87,0,0,0,113.79,24.32Zm3.9-8.64L116,23.85a4.8,4.8,0,0,0-.11.81.68.68,0,0,0,.38.69,3.74,3.74,0,0,0,1.35.17,4.62,4.62,0,0,0,3.54-1.39,4.9,4.9,0,0,0,1.29-3.48,4.94,4.94,0,0,0-1.36-3.53,4.38,4.38,0,0,0-3.33-1.44Z"/><path class="cls-1" d="M126.12,24.54l.63-3.24a3.26,3.26,0,0,0,.09-.68c0-.57-.4-.86-1.19-.87l.07-.33,3.06-.45h.2l-1.1,5.49a2.49,2.49,0,0,0-.06.5c0,.52.34.81,1,.89l-.06.34h-4.09l.08-.34A1.52,1.52,0,0,0,126.12,24.54Zm2.09-7.74a1,1,0,0,1-.74-.32,1.13,1.13,0,0,1-.3-.79,1.11,1.11,0,0,1,.3-.77,1,1,0,0,1,.74-.32,1,1,0,0,1,.74.32,1.08,1.08,0,0,1,.31.77,1.09,1.09,0,0,1-.31.79A1,1,0,0,1,128.21,16.8Z"/><path class="cls-1" d="M135.48,19,135,21.19h-.28a2.16,2.16,0,0,0-.55-1.25,1.43,1.43,0,0,0-1-.44,1.24,1.24,0,0,0-.73.22.68.68,0,0,0-.29.55c0,.28.33.77,1,1.48a7.63,7.63,0,0,1,1.27,1.65,2.52,2.52,0,0,1,.29,1.12,1.74,1.74,0,0,1-.67,1.41,2.67,2.67,0,0,1-1.74.55,4.84,4.84,0,0,1-1.13-.13,5.59,5.59,0,0,0-.71-.13.55.55,0,0,0-.52.24h-.3l.5-2.47h.3c.1,1.3.61,2,1.54,2a1.17,1.17,0,0,0,.77-.27.84.84,0,0,0,.32-.65,1.56,1.56,0,0,0-.2-.7,6.64,6.64,0,0,0-1-1.21,6.18,6.18,0,0,1-1-1.26,1.8,1.8,0,0,1-.21-.8,1.86,1.86,0,0,1,.71-1.49,2.67,2.67,0,0,1,1.79-.6,4.73,4.73,0,0,1,1,.1l.52.1a.63.63,0,0,0,.5-.22Z"/><path class="cls-1" d="M141.74,19l-.25,2.22h-.32c-.07-1.06-.43-1.59-1.07-1.59s-1.18.45-1.6,1.34a6.28,6.28,0,0,0-.64,2.74,1.79,1.79,0,0,0,.41,1.19,1.23,1.23,0,0,0,1,.49,3.19,3.19,0,0,0,1.82-.84l.2.23a4,4,0,0,1-2.86,1.73,2.15,2.15,0,0,1-1.68-.77,2.83,2.83,0,0,1-.68-1.92,5,5,0,0,1,1.25-3.43A3.5,3.5,0,0,1,139.84,19a3.4,3.4,0,0,1,.67.06l.36.06a1.44,1.44,0,0,0,.43-.06l.17-.06Z"/><path class="cls-1" d="M144.72,26.48a2.57,2.57,0,0,1-2.66-2.65,4.85,4.85,0,0,1,1.4-3.3A4.4,4.4,0,0,1,146.85,19a2.31,2.31,0,0,1,1.72.75,2.51,2.51,0,0,1,.73,1.8,4.88,4.88,0,0,1-1.45,3.39A4.23,4.23,0,0,1,144.72,26.48Zm1.57-6.88q-1,0-1.74,1.41a6.92,6.92,0,0,0-.69,3.08,2.23,2.23,0,0,0,.33,1.26,1,1,0,0,0,.83.5c.75,0,1.35-.48,1.8-1.43a7.08,7.08,0,0,0,.68-3.14,2.16,2.16,0,0,0-.32-1.23A1.05,1.05,0,0,0,146.29,19.6Z"/><path class="cls-1" d="M155.69,21l-3.16,5.51h-.39L151,21a1.75,1.75,0,0,0-.46-1,1.86,1.86,0,0,0-.85-.34l.05-.34h3.85l-.05.34a.92.92,0,0,0-.91,1,4.46,4.46,0,0,0,.12.9l.55,2.58L155.1,21a1.61,1.61,0,0,0,.25-.74c0-.37-.29-.58-.85-.61l.05-.34h2.68l0,.34a2.64,2.64,0,0,0-.83.44A4.67,4.67,0,0,0,155.69,21Z"/><path class="cls-1" d="M162.53,24.34l.25.22a4,4,0,0,1-3.28,1.92,2.77,2.77,0,0,1-2.81-2.82,4.46,4.46,0,0,1,1.46-3.28A4.72,4.72,0,0,1,161.54,19a1.77,1.77,0,0,1,1.14.36,1.09,1.09,0,0,1,.45.89c0,.67-.45,1.28-1.37,1.82a8,8,0,0,1-3.27,1,2.83,2.83,0,0,0,0,.41,1.9,1.9,0,0,0,.55,1.4,1.77,1.77,0,0,0,1.29.56A3.16,3.16,0,0,0,162.53,24.34Zm-4-1.73a3.67,3.67,0,0,0,2.06-.8,1.86,1.86,0,0,0,.8-1.35.8.8,0,0,0-.2-.56.67.67,0,0,0-.52-.22,1.73,1.73,0,0,0-1.34.82A4.27,4.27,0,0,0,158.55,22.61Z"/><path class="cls-1" d="M164.6,24l.63-3.08a2.45,2.45,0,0,0,0-.27c0-.54-.38-.83-1.13-.85l0-.33,2.91-.47h.21l-.57,2.67,0,0a8.11,8.11,0,0,1,1.17-1.95c.43-.51.79-.76,1.1-.76a2.11,2.11,0,0,1,1.23.63l-1.12,1.88c-.3-.51-.62-.76-.93-.76-.5,0-.94.5-1.34,1.5a7.07,7.07,0,0,0-.6,2.51c0,.59.36,1,1.09,1.12l-.08.34h-4.16l.07-.34a1.46,1.46,0,0,0,.87-.37A3.06,3.06,0,0,0,164.6,24Z"/><path class="cls-1" d="M70.24,35.11v.67a3.62,3.62,0,0,0-2,.89,2.48,2.48,0,0,0-.63,1.83,5.94,5.94,0,0,0,.06,1l2.08,14.32a4.18,4.18,0,0,0,1.06,2.41,4.61,4.61,0,0,0,2.44,1.15V58H61.89v-.67a3.7,3.7,0,0,0,2-1.13,3.43,3.43,0,0,0,.61-2.2,13.19,13.19,0,0,0-.13-1.72l-1.88-13.1L55,58h-.81L46.71,39.22l-2,13.48a9.86,9.86,0,0,0-.12,1.45q0,3,2.82,3.22V58H39.11v-.67a3.53,3.53,0,0,0,2.74-1.22,8.23,8.23,0,0,0,1.33-3.83l2.27-15a4.7,4.7,0,0,0-3.33-1.56v-.67h8.29l6,15.12,6.06-15.12Z"/><path class="cls-1" d="M78.4,58.63a4.56,4.56,0,0,1-3.13-1.14A3.51,3.51,0,0,1,74,54.75a3.3,3.3,0,0,1,1.29-2.67q1.27-1.06,5.36-2.14a29.34,29.34,0,0,0,2.83-.84,4.17,4.17,0,0,0-.88-3,3.74,3.74,0,0,0-2.8-.92,4.8,4.8,0,0,0-4.44,2.47h-.57A6.38,6.38,0,0,1,77.08,44a6.9,6.9,0,0,1,4.3-1.31,7.23,7.23,0,0,1,4.74,1.45,5,5,0,0,1,1.77,4.08v7c0,1.31.3,2,.9,2s1-.46,1.17-1.38h.63a2.93,2.93,0,0,1-1,2.13,4,4,0,0,1-2.55.74,4.23,4.23,0,0,1-2.19-.49,3.61,3.61,0,0,1-1.39-1.59l-.34.32A6.81,6.81,0,0,1,78.4,58.63Zm5-3.14V49.88A14.26,14.26,0,0,0,79.54,52a3,3,0,0,0-1,2.31,3.09,3.09,0,0,0,.56,1.95,1.78,1.78,0,0,0,1.49.73A4.24,4.24,0,0,0,83.41,55.49Z"/><path class="cls-1" d="M98.44,42.67v3.62h.07c1.42-2.42,3.29-3.62,5.61-3.62a5.08,5.08,0,0,1,3.68,1.46,5.26,5.26,0,0,1,1.49,3.92v6.47a3,3,0,0,0,.5,2,3.54,3.54,0,0,0,1.82.89V58h-9.09v-.67a3.33,3.33,0,0,0,1.81-.87,2.62,2.62,0,0,0,.52-1.79V48.58a4.13,4.13,0,0,0-.72-2.59,2.4,2.4,0,0,0-2-.93c-1.51,0-2.74.86-3.67,2.58v6.92a2.93,2.93,0,0,0,.46,1.87,3.58,3.58,0,0,0,1.72.94V58H91.68v-.67a3.67,3.67,0,0,0,1.81-.88A2.4,2.4,0,0,0,94,54.82V46.55a2.47,2.47,0,0,0-.59-1.83,3.65,3.65,0,0,0-2.07-.79v-.67l6.43-.59Z"/><path class="cls-1" d="M119.3,42.67H120V54.86a2.34,2.34,0,0,0,2.39,2.51V58h-9.3v-.67a3.6,3.6,0,0,0,2-.84,3.06,3.06,0,0,0,.49-2V46.67a2.75,2.75,0,0,0-.52-1.9,4.2,4.2,0,0,0-2.14-.84v-.67ZM115.18,36a2.43,2.43,0,0,1,.76-1.8,2.52,2.52,0,0,1,1.83-.74A2.53,2.53,0,0,1,120.31,36a2.52,2.52,0,0,1-.74,1.83,2.43,2.43,0,0,1-1.8.76A2.61,2.61,0,0,1,115.18,36Z"/><path class="cls-1" d="M134.27,55.57l.46.44A5.15,5.15,0,0,1,130,58.63a5.29,5.29,0,0,1-3.7-1.22A4.53,4.53,0,0,1,125,53.92V44.43H122.3v-.75a25.72,25.72,0,0,0,6.36-6.14h.75v5.72h4.86v1.17h-4.86V53a5.06,5.06,0,0,0,.64,2.9,2.35,2.35,0,0,0,2,.89A2.86,2.86,0,0,0,134.27,55.57Z"/><path class="cls-1" d="M153.53,50.63A7.42,7.42,0,0,1,151,56.34a9.55,9.55,0,0,1-6.67,2.29,9.66,9.66,0,0,1-6.69-2.28,7.38,7.38,0,0,1-2.56-5.72,7.85,7.85,0,0,1,4.42-7,10.88,10.88,0,0,1,4.83-1A9.54,9.54,0,0,1,151,45,7.36,7.36,0,0,1,153.53,50.63Zm-4.9,0a9.81,9.81,0,0,0-1.12-5.11,3.73,3.73,0,0,0-6.42,0A10.39,10.39,0,0,0,140,50.91a8.87,8.87,0,0,0,1.18,4.86,3.61,3.61,0,0,0,3.17,1.81,3.56,3.56,0,0,0,3.17-1.83A9.65,9.65,0,0,0,148.63,50.64Z"/><path class="cls-1" d="M171.41,35.11h11.77a8.94,8.94,0,0,1,5.74,1.68A5.36,5.36,0,0,1,191,41.17a5.84,5.84,0,0,1-2.32,4.77,10,10,0,0,1-6.41,1.86,24.49,24.49,0,0,1-2.91-.19v6.54a3.26,3.26,0,0,0,.63,2.24,3.87,3.87,0,0,0,2.25,1V58H171.41v-.67a4.11,4.11,0,0,0,2.33-1,4,4,0,0,0,.58-2.44v-15a3.16,3.16,0,0,0-.56-2.17,4.71,4.71,0,0,0-2.35-1Zm9.9,1.3h-1.94v9.84a5.77,5.77,0,0,0,1.69.27,4.15,4.15,0,0,0,3.29-1.35,5.55,5.55,0,0,0,1.19-3.79,5.33,5.33,0,0,0-1.17-3.59A3.82,3.82,0,0,0,181.31,36.41Z"/><path class="cls-1" d="M195,58.63a4.59,4.59,0,0,1-3.13-1.14,3.53,3.53,0,0,1-1.29-2.74,3.31,3.31,0,0,1,1.28-2.67,15.73,15.73,0,0,1,5.36-2.14c1.32-.34,2.26-.62,2.84-.84a4.22,4.22,0,0,0-.88-3,3.74,3.74,0,0,0-2.8-.92,4.8,4.8,0,0,0-4.44,2.47h-.57a6.38,6.38,0,0,1,2.32-3.7,6.9,6.9,0,0,1,4.3-1.31,7.23,7.23,0,0,1,4.74,1.45,5,5,0,0,1,1.77,4.08v7c0,1.31.3,2,.9,2s1-.46,1.17-1.38h.63a2.9,2.9,0,0,1-1.06,2.13,4,4,0,0,1-2.54.74,4.23,4.23,0,0,1-2.19-.49A3.61,3.61,0,0,1,200,56.55l-.35.32A6.78,6.78,0,0,1,195,58.63Zm5-3.14V49.88A14.36,14.36,0,0,0,196.12,52a3.05,3.05,0,0,0-1,2.31,3.1,3.1,0,0,0,.57,1.95,1.78,1.78,0,0,0,1.48.73A4.24,4.24,0,0,0,200,55.49Z"/><path class="cls-1" d="M215.09,42.67v4.71h.08q2.1-4.71,4.9-4.71a3.38,3.38,0,0,1,2.62,1.25l-1,4.47c-1.34-1.28-2.45-1.91-3.33-1.91a3.07,3.07,0,0,0-1.7.46,6.08,6.08,0,0,0-1.59,1.64v6.05a2.79,2.79,0,0,0,.5,1.94,3.91,3.91,0,0,0,2,.8V58h-9.42v-.67a3.93,3.93,0,0,0,2-.9,2.68,2.68,0,0,0,.51-1.84V46.82a3,3,0,0,0-.64-2.09,3.13,3.13,0,0,0-2.06-.8v-.67l6.47-.59Z"/><path class="cls-1" d="M222.69,58v-.67a3.69,3.69,0,0,0,1.75-.88,2.45,2.45,0,0,0,.48-1.67V36.91a2.09,2.09,0,0,0-.46-1.49,4,4,0,0,0-1.77-.83v-.67l6-.42h.67V50.07l5.24-3.79a1.33,1.33,0,0,0,.59-1.12,1,1,0,0,0-.43-.89,1.81,1.81,0,0,0-1.17-.34v-.67h8.15v.67a10,10,0,0,0-2.38.59,13.16,13.16,0,0,0-2.29,1.36l-3.87,2.73,7,7.3A5.09,5.09,0,0,0,241.45,57a4.12,4.12,0,0,0,1.47.37V58h-6.75L229.37,51v3.36a3.85,3.85,0,0,0,.36,2,3.81,3.81,0,0,0,1.86,1V58Z"/><path class="cls-1" d="M149.76,92c.4.36.81.71,1.2,1.09a12.63,12.63,0,0,1,3.12,4.33,6.94,6.94,0,0,1,.52,3.12,5.68,5.68,0,0,1-1.62,3.62,6.31,6.31,0,0,1-3.81,2,6.4,6.4,0,0,1-5.52-1.85,9.35,9.35,0,0,1-2.28-3.7,15.5,15.5,0,0,1-.8-3.49c0-.39-.09-.78-.14-1.21-.06.41-.11.78-.17,1.14a15.7,15.7,0,0,1-2,5.64,7.47,7.47,0,0,1-2.62,2.62,5.72,5.72,0,0,1-5.58.2,6.33,6.33,0,0,1-3.63-4.61,6.84,6.84,0,0,1,.42-4,10.76,10.76,0,0,1,2.21-3.33A18.78,18.78,0,0,1,132.19,91a.32.32,0,0,0,.12-.11L132,91a20.25,20.25,0,0,1-3.83,1.11,12,12,0,0,1-3.54.14A7,7,0,0,1,121,90.73,5.77,5.77,0,0,1,118.9,87a6.53,6.53,0,0,1,5.24-7.33,10.17,10.17,0,0,1,4.59.2,16.8,16.8,0,0,1,2.74,1,.28.28,0,0,0,.13,0l-.65-.57a14.57,14.57,0,0,1-3.1-3.72,7.76,7.76,0,0,1-1-2.94A5.81,5.81,0,0,1,129,68.13a6.54,6.54,0,0,1,8.74.45,9.7,9.7,0,0,1,2.38,4,16.25,16.25,0,0,1,.74,3.59,4,4,0,0,0,.08.48c.06-.34.11-.69.17-1a15.59,15.59,0,0,1,1.77-5.15,7.82,7.82,0,0,1,2.79-2.92,5.68,5.68,0,0,1,3.14-.79,6.52,6.52,0,0,1,6.11,5.52,7,7,0,0,1-.5,3.72,10.44,10.44,0,0,1-2.21,3.31,17.12,17.12,0,0,1-3.08,2.55A.46.46,0,0,0,149,82l.12,0a20.1,20.1,0,0,1,4.23-1.23,10.22,10.22,0,0,1,4.79.2,5.81,5.81,0,0,1,4.09,4A6.5,6.5,0,0,1,158,93a8.12,8.12,0,0,1-2.19.38A12.49,12.49,0,0,1,151,92.5C150.57,92.35,150.17,92.18,149.76,92Zm-12.35-7.52,0,.05a33.4,33.4,0,0,0-3.5-1.44,19.18,19.18,0,0,0-3.67-.94,3.08,3.08,0,0,1,1.22,1.56,5.58,5.58,0,0,1,.27,2.33.19.19,0,0,1,0,.08s-.05.08-.08.09a.35.35,0,0,1-.13,0s0-.06-.06-.09c-.47-.73-.93-1.47-1.43-2.19a3.83,3.83,0,0,0-1.88-1.48,4.86,4.86,0,0,0-1.6-.24,6.18,6.18,0,0,0-1.14.07,5,5,0,0,0-1.6.7,1.58,1.58,0,0,0-.63.77,3.4,3.4,0,0,0-.08,2.29,1.9,1.9,0,0,0,1.14,1.24,1.05,1.05,0,0,0,1.5-.66,2.76,2.76,0,0,0,.14-.76,3.69,3.69,0,0,0-.41-1.78l-.06-.19,0,0,.14.08a5.65,5.65,0,0,1,1.22,1.22,2.18,2.18,0,0,1,.15,2.58,1.85,1.85,0,0,1-1.5,1,2.88,2.88,0,0,1-1.44-.31c-.23-.1-.44-.23-.69-.36l.09.11a6,6,0,0,0,1.68,1.12,9.47,9.47,0,0,0,3.55.8,16.28,16.28,0,0,0,4.06-.35,27.1,27.1,0,0,0,4.5-1.35l.15,0v0l-.11.09c-.89.71-1.8,1.39-2.66,2.13a19.92,19.92,0,0,0-3.51,3.88c-.17.25-.33.51-.5.79.25,0,.46-.06.68-.07a2.69,2.69,0,0,1,2.16.82,4.4,4.4,0,0,1,1.11,2.25s0,.06,0,.13l-.13-.17c-.3-.32-.59-.67-.92-1a2.66,2.66,0,0,0-1.73-.71,2.14,2.14,0,0,0-2,1.23,3.16,3.16,0,0,0-.17,2.52,3,3,0,0,0,3.08,2.23,4.75,4.75,0,0,0,2.42-.78,9,9,0,0,0,2.84-3,3.52,3.52,0,0,0,.39-.94,7.2,7.2,0,0,0,0-3.36,2.37,2.37,0,0,0-.61-1.21,3.22,3.22,0,0,0-2-.86c-.28,0-.56-.05-.87-.07l.08,0a6.6,6.6,0,0,1,2.72-.25,2.34,2.34,0,0,1,1.87,1.21c.14.26.26.52.39.79a33,33,0,0,0,.77-3.81c.15,1,.28,2,.49,3l.13-.15.12-.14a2.14,2.14,0,0,1,2.07-.78,3.26,3.26,0,0,1,2.27,1.75.62.62,0,0,1,0,.14l-.21-.09a6.51,6.51,0,0,0-2.08-.53.87.87,0,0,0-1,.52,2.65,2.65,0,0,0-.23.91,12.67,12.67,0,0,0,0,1.63,5.75,5.75,0,0,0,.64,2.32,10.49,10.49,0,0,0,2.08,2.87,4.82,4.82,0,0,0,2.44,1.31,1.51,1.51,0,0,0,1.31-.27,2.58,2.58,0,0,0,.84-1.32,6.68,6.68,0,0,0,0-3.63,4.11,4.11,0,0,0-1.19-2.14s0,0,0,0h.09a3.61,3.61,0,0,1,.44.22,4,4,0,0,1,1.26,1.52,8.19,8.19,0,0,1,.86,2.9.79.79,0,0,0,.05-.13,6.06,6.06,0,0,0,0-1.9,9.57,9.57,0,0,0-1-3.08A16.89,16.89,0,0,0,147,91a26.89,26.89,0,0,0-3-2.61l-.11-.08,0,0,.14.06c.8.35,1.6.71,2.41,1a21.59,21.59,0,0,0,6.08,1.5,10,10,0,0,0,3-.18,5.13,5.13,0,0,0,2.48-1.19,3,3,0,0,0,.91-3.23,4.11,4.11,0,0,0-1.64-2.1,3.12,3.12,0,0,0-1.93-.61,3.85,3.85,0,0,0-2.08.66,3.41,3.41,0,0,0-1.23,1.27,1.24,1.24,0,0,0-.16.61,2.44,2.44,0,0,0,1,1.84,1.49,1.49,0,0,0,2.18-.23,2.07,2.07,0,0,0,.46-1.66c0-.16-.06-.32-.09-.52l.14.1a3.58,3.58,0,0,1,.77,1A2,2,0,0,1,156.6,88a2.65,2.65,0,0,1-3,1.93,3.77,3.77,0,0,1-2.21-1.37,3.6,3.6,0,0,1-.8-3.22A5,5,0,0,1,152,83l.19-.19A23.15,23.15,0,0,0,144,84.56a.53.53,0,0,1,.09-.11c.74-.58,1.49-1.14,2.21-1.74A21.89,21.89,0,0,0,150,78.89a11.17,11.17,0,0,0,1.76-3.41c0-.1,0-.2.08-.31a4.67,4.67,0,0,1-1.8.46,2.45,2.45,0,0,1-1.68-.49l-.13-.12.1,0c.43-.11.87-.21,1.3-.35a4,4,0,0,0,1.57-.85,1.28,1.28,0,0,0,.45-1.13,2.11,2.11,0,0,0-.42-.91,2.91,2.91,0,0,0-2.47-1.31,4.57,4.57,0,0,0-2.39.68,9.2,9.2,0,0,0-2.55,2.5,4.15,4.15,0,0,0-.7,1.54,3.59,3.59,0,0,0,.46,2.75,4.84,4.84,0,0,0,2,1.66,1.22,1.22,0,0,0,.78.08,2.93,2.93,0,0,0,1.32-.62l.18-.13,0,0s0,.11,0,.15a7.06,7.06,0,0,1-.4.72A2.65,2.65,0,0,1,145.88,81a3,3,0,0,1-2.79-.79,3.29,3.29,0,0,1-.94-2c-.06-.34-.09-.69-.14-1a.43.43,0,0,0,0,.13c-.25.89-.51,1.78-.72,2.68-.17.72-.28,1.46-.42,2.19a1.59,1.59,0,0,1-.07.2c-.23-1.16-.42-2.31-.65-3.46a20.6,20.6,0,0,0-1-3.37l-.07.12a5.57,5.57,0,0,1-.85,1.24,4.48,4.48,0,0,1-2.75,1.55,3.08,3.08,0,0,1-3.31-1.84A4.94,4.94,0,0,1,132,73a1.51,1.51,0,0,1,1-1,2,2,0,0,1,1-.06,3.77,3.77,0,0,1,1.11.35c-.28,0-.54,0-.79,0a1.73,1.73,0,0,0-1.58,1.38,3,3,0,0,0,0,1.26,3.09,3.09,0,0,0,.95,1.77,1.37,1.37,0,0,0,1.41.34,4.72,4.72,0,0,0,1.78-1,2.84,2.84,0,0,0,.38-4,6.31,6.31,0,0,0-2.37-1.88,3.4,3.4,0,0,0-1.5-.35A2.94,2.94,0,0,0,131,71.08a4.29,4.29,0,0,0-.82,2.42,7.3,7.3,0,0,0,.41,2.7A13.14,13.14,0,0,0,133,80.39a24.47,24.47,0,0,0,4.26,4Z"/><path class="cls-1" d="M139,86.33a1.72,1.72,0,1,1,1.68,1.72A1.71,1.71,0,0,1,139,86.33Z"/><path class="cls-1" d="M117.24,72.14c-.65-1-3.22-.44-15.93.09-4.73.2-13.93,2.58-22.77,1.81-12-1-34.47,13.36-45.91,11.82s-10.91-12.8-6.12-16.11c12.84-8.86,9.7,6.21,10.19,6.52s2.47-3.73.7-8.27c-1.67-4.29-9.47-2.45-13.22,2.08-4.1,4.94-3.8,14,5.66,16.51,12.31,3.26,36.44-11.11,48-11.08s8.74,16.43,6.61,16.1c-1.39-.22-7.93-1.76-13.36-1.12-9.23,1.08-27.86,4.66-32.6,5.85-8.83,2.21-14.86,7.79-25.14,8.51C3.45,105.54-2.87,92.6,6,86.34c7.43-5.28,8.86,6.71,9.27,6.48s1.27-12.37-9.09-8.31C-.78,87.22-2,97.71,3.35,103.2c6.25,6.35,19.07,1.61,19.07,1.61a14,14,0,0,0-4,12.75,13.47,13.47,0,0,0,12.4,10.64c7.15.4,14.13-6.79,12.94-13.28s-11-4.88-11.19-4.19,8.35.72,9.21,4.35-2.8,11-11.41,11.15c-7.9.12-12.63-10.09-7.49-18.38,2.54-4.11,10.33-7.43,15.52-9.56,1.7-.69,21.85-4.15,21.85-4.15-5.82,5.14-8.3,10.19-6.72,16.39,3.91,15.38,22.09,13.31,26.54,12.19s13.59-6.48,10.22-13.61c-3.66-7.75-19-1.76-17-2,22.48-2.42,15.38,12.38,4,14.26s-18.61-2.85-21.05-10.69c-2.12-6.76,1.8-17.48,15.05-18,9-.39,21.1,4.8,27,7.15s17.35-3.3,16.32-5.43S112.34,86,113,81C113.67,76.15,117.88,73.08,117.24,72.14Zm-3.57,2.12c-7.2,9.07-1.45,19.26-2.17,20.22-7.43,9.81-24.75-1.69-24.46-2.3,1.34-2.91,3.6-11.4-1.61-16C84.88,75.75,114.45,73.28,113.67,74.26Z"/><path class="cls-1" d="M64.62,76.89c-9.76,4.2-14.1-3.1-8.9-6.33.1-.06.19,0,.13.12C52.58,76.16,58.45,78.49,64.62,76.89Z"/><path class="cls-1" d="M107.41,107.51c-10.17-3.07-13,2.33-7.33,4.7.11,0,.17,0,.09-.09C96,108.09,101.19,106.35,107.41,107.51Z"/><path class="cls-1" d="M86.58,86c-1.72-3.07-14.5-4.49-23-.09,10.38-6.71,22.86-4.06,24.37-.59C88.42,86.48,87.05,86.83,86.58,86Z"/><path class="cls-1" d="M40,96.09c-5.71,1-10.72.32-11.79-2.93,0-.07-.11,0-.13.09C27.12,97.09,31.3,99,40,96.09Z"/><path class="cls-1" d="M110.2,82.1c-.41,19.39-19.93,11.74-18.09,1.94,1.21-6.41,12.57-7.42,11.93-1-.52,5.28-5.3,4.73-5.64,4.85s6.4,3.27,7.09-5.11C106,76.06,93,73.92,90.66,84.29c-2.15,9.79,19.11,19.33,20.76-.34Z"/><path class="cls-1" d="M121.23,106.9c-5.8-.84-16.63-.34-18.59-2.16-2.68-2.49.77-4.37,2.63-4.81a12,12,0,0,0,3.86-2l-7.37,2s-4.58,2.69-2.21,5.32c2.94,3.25,16,2.22,20.66,3.07,7,1.29,14,6.19,9.3,11.22s-8,2.09-7.23-.92c1-4,3.21-1.71,3.52-2,.61-.67-3.41-4-5,1.48-1.4,4.73,4.38,7.93,9.35,3C135.9,115.3,131.26,108.35,121.23,106.9Z"/><path class="cls-1" d="M118.6,107.21c-8.82-.91-11.52-6.45-7.43-10.48C109.17,100.81,112.19,105.4,118.6,107.21Z"/><path class="cls-1" d="M168.58,81c.68,5-.52,11.29-1.55,13.41s10.44,7.78,16.32,5.43,18-7.54,27-7.15c13.25.57,17.17,11.29,15,18-2.44,7.84-9.58,12.58-21,10.69s-18.51-16.68,4-14.26c2,.21-13.36-5.78-17,2-3.37,7.13,5.77,12.5,10.22,13.61s22.63,3.19,26.54-12.19c1.58-6.2-.9-11.25-6.72-16.39,0,0,20.15,3.46,21.85,4.15,5.19,2.13,13,5.45,15.52,9.56,5.14,8.29.41,18.5-7.49,18.38-8.61-.13-12.26-7.56-11.41-11.15s9.36-3.66,9.21-4.35-10-2.29-11.19,4.19,5.79,13.68,12.94,13.28a13.47,13.47,0,0,0,12.4-10.64,14,14,0,0,0-4-12.75s12.82,4.74,19.07-1.61c5.4-5.49,4.13-16-2.78-18.69-10.36-4.06-9.5,8.07-9.09,8.31s1.84-11.76,9.27-6.48c8.82,6.26,2.5,19.2-7.43,18.51-10.28-.72-16.31-6.3-25.14-8.51-4.74-1.19-23.37-4.77-32.6-5.85-5.43-.64-12,.9-13.36,1.12-2.13.33-5-16.07,6.61-16.1s35.72,14.34,48,11.08c9.46-2.51,9.76-11.57,5.66-16.51-3.75-4.53-11.55-6.37-13.22-2.08-1.77,4.54.22,8.59.7,8.27s-2.65-15.38,10.19-6.52c4.79,3.31,5.27,14.56-6.12,16.11S215.09,73,203.06,74c-8.84.77-18-1.61-22.77-1.81-12.71-.53-15.28-1-15.93-.09S167.93,76.15,168.58,81Zm27.59-4.74c-5.21,4.55-2.95,13-1.61,16,.29.61-17,12.11-24.46,2.3-.72-1,5-11.15-2.17-20.22C167.15,73.28,196.73,75.75,196.17,76.23Z"/><path class="cls-1" d="M217,76.89c9.77,4.2,14.11-3.1,8.9-6.33-.1-.06-.19,0-.13.12C229,76.16,223.15,78.49,217,76.89Z"/><path class="cls-1" d="M174.19,107.51c10.17-3.07,12.95,2.33,7.33,4.7-.11,0-.17,0-.09-.09C185.61,108.09,180.41,106.35,174.19,107.51Z"/><path class="cls-1" d="M195,86c1.72-3.07,14.5-4.49,23-.09-10.38-6.71-22.86-4.06-24.37-.59C193.18,86.48,194.55,86.83,195,86Z"/><path class="cls-1" d="M241.63,96.09c5.71,1,10.72.32,11.79-2.93,0-.07.11,0,.13.09C254.48,97.09,250.3,99,241.63,96.09Z"/><path class="cls-1" d="M171.4,82.1c.41,19.39,19.94,11.74,18.09,1.94-1.21-6.41-12.57-7.42-11.93-1,.52,5.28,5.3,4.73,5.64,4.85s-6.4,3.27-7.09-5.11c-.54-6.69,12.54-8.83,14.83,1.54,2.15,9.79-19.11,19.33-20.76-.34Z"/><path class="cls-1" d="M160.37,106.9c5.8-.84,16.63-.34,18.59-2.16,2.68-2.49-.77-4.37-2.63-4.81a12,12,0,0,1-3.86-2l7.37,2s4.58,2.69,2.21,5.32c-2.94,3.25-16,2.22-20.66,3.07-7,1.29-14,6.19-9.3,11.22s8,2.09,7.23-.92c-1-4-3.21-1.71-3.52-2-.61-.67,3.41-4,5,1.48,1.4,4.73-4.38,7.93-9.35,3C145.7,115.3,150.34,108.35,160.37,106.9Z"/><path class="cls-1" d="M163,107.21c8.82-.91,11.52-6.45,7.43-10.48C172.43,100.81,169.41,105.4,163,107.21Z"/><path class="cls-1" d="M91.51,13.81c-1.31-1,14.18-7,11.49,8.15-1.23,7-8.53,8.37-13.62,3.89-11.62-10.2-19.27-5-29.47-2.69s-28.29,6.2-39.2,5.19S-.75,23.91.15,15.24,7.35-4.1,21,1.6c14,5.85,2.35,11.48,2.2,10.81C23,11.5,30.53,7.65,20.3,3.17,7-2.66,3.05,10.6,2.58,14.53,1.34,24.82,18.37,26.2,22.8,26.26s20.11-1.6,20.11-1.6-6.23-2-4.68-10c1.06-5.49,6.71-5.85,8.83-3.91,3.88,3.56-1.42,6.45-2,6.14-.24-.11,4.37-2.58,1-4.88-2.53-1.71-6.36-1.37-6.84,5.14-.27,3.58,4.54,7.22,7.51,7,10.29-.85,20.22-6.06,30.25-6.6,8.81-.47,11.4,7.48,18.76,8.63,3.44.54,7.62-6.77,4.52-11.2C97.77,11.47,92.86,14.8,91.51,13.81Z"/><path class="cls-1" d="M190.19,13.81c1.31-1-14.18-7-11.49,8.15,1.23,7,8.52,8.37,13.62,3.89,11.62-10.2,19.26-5,29.47-2.69s28.29,6.2,39.19,5.19,21.46-4.44,20.57-13.11S274.34-4.1,260.68,1.6c-14,5.85-2.36,11.48-2.2,10.81.21-.91-7.32-4.76,2.92-9.24,13.32-5.83,17.25,7.43,17.72,11.36,1.24,10.29-15.79,11.67-20.22,11.73s-20.11-1.6-20.11-1.6,6.23-2,4.68-10c-1.06-5.49-6.71-5.85-8.83-3.91-3.88,3.56,1.42,6.45,2,6.14.24-.11-4.37-2.58-1-4.88,2.53-1.71,6.36-1.37,6.84,5.14.27,3.58-4.54,7.22-7.51,7-10.29-.85-20.22-6.06-30.25-6.6C196,17.05,193.38,25,186,26.15c-3.44.54-7.62-6.77-4.52-11.2C183.93,11.47,188.84,14.8,190.19,13.81Z"/></g></g></svg>